%TF.GenerationSoftware,KiCad,Pcbnew,9.0.2*%
%TF.CreationDate,2025-06-06T06:26:29-05:00*%
%TF.ProjectId,HVAC_ESP32_Node,48564143-5f45-4535-9033-325f4e6f6465,rev?*%
%TF.SameCoordinates,Original*%
%TF.FileFunction,Soldermask,Top*%
%TF.FilePolarity,Negative*%
%FSLAX46Y46*%
G04 Gerber Fmt 4.6, Leading zero omitted, Abs format (unit mm)*
G04 Created by KiCad (PCBNEW 9.0.2) date 2025-06-06 06:26:29*
%MOMM*%
%LPD*%
G01*
G04 APERTURE LIST*
G04 Aperture macros list*
%AMRoundRect*
0 Rectangle with rounded corners*
0 $1 Rounding radius*
0 $2 $3 $4 $5 $6 $7 $8 $9 X,Y pos of 4 corners*
0 Add a 4 corners polygon primitive as box body*
4,1,4,$2,$3,$4,$5,$6,$7,$8,$9,$2,$3,0*
0 Add four circle primitives for the rounded corners*
1,1,$1+$1,$2,$3*
1,1,$1+$1,$4,$5*
1,1,$1+$1,$6,$7*
1,1,$1+$1,$8,$9*
0 Add four rect primitives between the rounded corners*
20,1,$1+$1,$2,$3,$4,$5,0*
20,1,$1+$1,$4,$5,$6,$7,0*
20,1,$1+$1,$6,$7,$8,$9,0*
20,1,$1+$1,$8,$9,$2,$3,0*%
%AMFreePoly0*
4,1,64,0.235856,1.440014,0.383010,1.379061,0.515445,1.290571,0.628071,1.177945,0.716561,1.045510,0.777514,0.898356,0.808588,0.742139,0.808588,0.582861,0.777514,0.426644,0.716561,0.279490,0.628071,0.147055,0.515445,0.034429,0.383010,-0.054061,0.235856,-0.115014,0.079639,-0.146088,0.031751,-0.146088,0.029264,-0.147118,-0.029264,-0.147118,-0.031751,-0.146088,-0.079639,-0.146088,
-0.235856,-0.115014,-0.383010,-0.054061,-0.515445,0.034429,-0.628071,0.147055,-0.716561,0.279490,-0.777514,0.426644,-0.808588,0.582861,-0.808588,0.729972,-0.512500,0.729972,-0.512500,0.595028,-0.477574,0.464683,-0.410102,0.347818,-0.314682,0.252398,-0.197817,0.184926,-0.067472,0.150000,0.067472,0.150000,0.197817,0.184926,0.314682,0.252398,0.410102,0.347818,0.477574,0.464683,
0.512500,0.595028,0.512500,0.729972,0.477574,0.860317,0.410102,0.977182,0.314682,1.072602,0.197817,1.140074,0.067472,1.175000,-0.067472,1.175000,-0.197817,1.140074,-0.314682,1.072602,-0.410102,0.977182,-0.477574,0.860317,-0.512500,0.729972,-0.808588,0.729972,-0.808588,0.742139,-0.777514,0.898356,-0.716561,1.045510,-0.628071,1.177945,-0.515445,1.290571,-0.383010,1.379061,
-0.235856,1.440014,-0.079639,1.471088,0.079639,1.471088,0.235856,1.440014,0.235856,1.440014,$1*%
G04 Aperture macros list end*
%ADD10RoundRect,0.250000X-0.250000X0.250000X-0.250000X-0.250000X0.250000X-0.250000X0.250000X0.250000X0*%
%ADD11R,1.800000X1.800000*%
%ADD12C,1.800000*%
%ADD13R,1.524000X2.524000*%
%ADD14O,1.524000X2.524000*%
%ADD15RoundRect,0.237500X-0.250000X-0.237500X0.250000X-0.237500X0.250000X0.237500X-0.250000X0.237500X0*%
%ADD16RoundRect,0.150000X0.150000X-0.512500X0.150000X0.512500X-0.150000X0.512500X-0.150000X-0.512500X0*%
%ADD17C,1.498092*%
%ADD18C,1.498600*%
%ADD19RoundRect,0.250000X0.845000X-0.620000X0.845000X0.620000X-0.845000X0.620000X-0.845000X-0.620000X0*%
%ADD20O,2.190000X1.740000*%
%ADD21RoundRect,0.150000X0.150000X0.200000X-0.150000X0.200000X-0.150000X-0.200000X0.150000X-0.200000X0*%
%ADD22RoundRect,0.250000X0.337500X0.475000X-0.337500X0.475000X-0.337500X-0.475000X0.337500X-0.475000X0*%
%ADD23C,1.600000*%
%ADD24RoundRect,0.225000X0.375000X-0.225000X0.375000X0.225000X-0.375000X0.225000X-0.375000X-0.225000X0*%
%ADD25RoundRect,0.250000X-0.337500X-0.475000X0.337500X-0.475000X0.337500X0.475000X-0.337500X0.475000X0*%
%ADD26R,0.500000X0.300000*%
%ADD27RoundRect,0.250000X-0.250000X-0.250000X0.250000X-0.250000X0.250000X0.250000X-0.250000X0.250000X0*%
%ADD28RoundRect,0.237500X0.250000X0.237500X-0.250000X0.237500X-0.250000X-0.237500X0.250000X-0.237500X0*%
%ADD29RoundRect,0.150000X-0.512500X-0.150000X0.512500X-0.150000X0.512500X0.150000X-0.512500X0.150000X0*%
%ADD30RoundRect,0.150000X-0.150000X-0.200000X0.150000X-0.200000X0.150000X0.200000X-0.150000X0.200000X0*%
%ADD31RoundRect,0.237500X0.237500X-0.300000X0.237500X0.300000X-0.237500X0.300000X-0.237500X-0.300000X0*%
%ADD32RoundRect,0.237500X-0.237500X0.300000X-0.237500X-0.300000X0.237500X-0.300000X0.237500X0.300000X0*%
%ADD33RoundRect,0.150000X0.200000X-0.150000X0.200000X0.150000X-0.200000X0.150000X-0.200000X-0.150000X0*%
%ADD34RoundRect,0.062500X0.062500X-0.187500X0.062500X0.187500X-0.062500X0.187500X-0.062500X-0.187500X0*%
%ADD35R,1.600000X0.900000*%
%ADD36RoundRect,0.237500X0.237500X-0.250000X0.237500X0.250000X-0.237500X0.250000X-0.237500X-0.250000X0*%
%ADD37R,1.800000X1.000000*%
%ADD38RoundRect,0.237500X0.300000X0.237500X-0.300000X0.237500X-0.300000X-0.237500X0.300000X-0.237500X0*%
%ADD39C,0.500000*%
%ADD40R,0.522000X0.600000*%
%ADD41FreePoly0,0.000000*%
%ADD42RoundRect,0.125000X0.125000X-0.175000X0.125000X0.175000X-0.125000X0.175000X-0.125000X-0.175000X0*%
%ADD43RoundRect,0.225000X-0.225000X-0.375000X0.225000X-0.375000X0.225000X0.375000X-0.225000X0.375000X0*%
%ADD44RoundRect,0.087500X0.425000X0.087500X-0.425000X0.087500X-0.425000X-0.087500X0.425000X-0.087500X0*%
%ADD45RoundRect,0.087500X0.087500X0.425000X-0.087500X0.425000X-0.087500X-0.425000X0.087500X-0.425000X0*%
%ADD46R,3.150000X3.150000*%
%ADD47RoundRect,0.200000X-0.750000X-0.200000X0.750000X-0.200000X0.750000X0.200000X-0.750000X0.200000X0*%
%ADD48C,3.200000*%
%ADD49RoundRect,0.062500X0.062500X-0.337500X0.062500X0.337500X-0.062500X0.337500X-0.062500X-0.337500X0*%
%ADD50RoundRect,0.062500X0.337500X-0.062500X0.337500X0.062500X-0.337500X0.062500X-0.337500X-0.062500X0*%
%ADD51R,3.350000X3.350000*%
%ADD52C,3.204000*%
%ADD53RoundRect,0.550000X-0.550000X0.550000X-0.550000X-0.550000X0.550000X-0.550000X0.550000X0.550000X0*%
%ADD54C,2.200000*%
%ADD55RoundRect,0.250000X0.300000X0.300000X-0.300000X0.300000X-0.300000X-0.300000X0.300000X-0.300000X0*%
%ADD56RoundRect,0.237500X-0.300000X-0.237500X0.300000X-0.237500X0.300000X0.237500X-0.300000X0.237500X0*%
%ADD57RoundRect,0.250000X0.475000X-0.337500X0.475000X0.337500X-0.475000X0.337500X-0.475000X-0.337500X0*%
%ADD58RoundRect,0.237500X-0.237500X0.250000X-0.237500X-0.250000X0.237500X-0.250000X0.237500X0.250000X0*%
%ADD59RoundRect,0.225000X0.225000X0.375000X-0.225000X0.375000X-0.225000X-0.375000X0.225000X-0.375000X0*%
%ADD60RoundRect,0.150000X-0.200000X0.150000X-0.200000X-0.150000X0.200000X-0.150000X0.200000X0.150000X0*%
%ADD61C,2.204000*%
%ADD62R,1.500000X1.000000*%
%ADD63RoundRect,0.250000X-0.475000X0.337500X-0.475000X-0.337500X0.475000X-0.337500X0.475000X0.337500X0*%
%ADD64C,6.400000*%
%ADD65RoundRect,0.100000X0.100000X-0.650000X0.100000X0.650000X-0.100000X0.650000X-0.100000X-0.650000X0*%
%ADD66C,0.685800*%
%ADD67O,1.092200X2.082800*%
%ADD68RoundRect,0.065500X0.406500X0.196500X-0.406500X0.196500X-0.406500X-0.196500X0.406500X-0.196500X0*%
%ADD69RoundRect,0.102000X0.460000X0.725000X-0.460000X0.725000X-0.460000X-0.725000X0.460000X-0.725000X0*%
%ADD70RoundRect,0.150000X-0.825000X-0.150000X0.825000X-0.150000X0.825000X0.150000X-0.825000X0.150000X0*%
%ADD71C,5.000000*%
%ADD72C,4.500000*%
%ADD73C,3.500000*%
%ADD74RoundRect,0.102000X-0.704000X0.704000X-0.704000X-0.704000X0.704000X-0.704000X0.704000X0.704000X0*%
%ADD75C,1.612000*%
%ADD76R,1.500000X0.900000*%
%ADD77R,0.900000X1.500000*%
%ADD78C,0.600000*%
%ADD79R,3.900000X3.900000*%
%ADD80R,2.200000X2.200000*%
%ADD81C,1.200000*%
%ADD82O,2.200000X1.200000*%
%ADD83O,1.200000X2.200000*%
%ADD84R,1.000000X1.000000*%
%ADD85C,1.000000*%
G04 APERTURE END LIST*
%TO.C,JP2*%
G36*
X198650000Y-150350000D02*
G01*
X200150000Y-150350000D01*
X200150000Y-150050000D01*
X198650000Y-150050000D01*
X198650000Y-150350000D01*
G37*
%TO.C,JP1*%
G36*
X200150000Y-145200000D02*
G01*
X198650000Y-145200000D01*
X198650000Y-146800000D01*
X200150000Y-146800000D01*
X200150000Y-145200000D01*
G37*
%TO.C,JP4*%
G36*
X201162500Y-161400000D02*
G01*
X202662500Y-161400000D01*
X202662500Y-161100000D01*
X201162500Y-161100000D01*
X201162500Y-161400000D01*
G37*
%TD*%
D10*
%TO.C,D12*%
X195100000Y-165650000D03*
X195100000Y-168150000D03*
%TD*%
D11*
%TO.C,D2*%
X138000000Y-129387500D03*
D12*
X140540000Y-129387500D03*
%TD*%
D13*
%TO.C,U6*%
X150120000Y-132720000D03*
D14*
X152660000Y-132720000D03*
X155200000Y-132720000D03*
X157740000Y-132720000D03*
X160280000Y-132720000D03*
X160280000Y-117480000D03*
X157740000Y-117480000D03*
X155200000Y-117480000D03*
X152660000Y-117480000D03*
X150120000Y-117480000D03*
%TD*%
D15*
%TO.C,R44*%
X204512500Y-135775000D03*
X206337500Y-135775000D03*
%TD*%
D16*
%TO.C,Q14*%
X144050000Y-128025000D03*
X145950000Y-128025000D03*
X145000000Y-125750000D03*
%TD*%
D17*
%TO.C,SW6*%
X204200001Y-115800001D03*
X197700000Y-115800001D03*
X204200001Y-111300000D03*
X197700000Y-111300000D03*
D18*
X200950000Y-117639401D03*
%TD*%
D19*
%TO.C,J8*%
X218520000Y-94040000D03*
D20*
X218520000Y-91500000D03*
X218520000Y-88960000D03*
%TD*%
D21*
%TO.C,D35*%
X212900000Y-126537500D03*
X214300000Y-126537500D03*
%TD*%
D22*
%TO.C,C15*%
X206562500Y-137675000D03*
X204487500Y-137675000D03*
%TD*%
D23*
%TO.C,RV2*%
X170000000Y-86000000D03*
X175000000Y-88800000D03*
%TD*%
D24*
%TO.C,D7*%
X213100000Y-172050000D03*
X213100000Y-168750000D03*
%TD*%
D25*
%TO.C,C19*%
X195162500Y-92362500D03*
X197237500Y-92362500D03*
%TD*%
D26*
%TO.C,U10*%
X203700000Y-171537500D03*
X203700000Y-172337500D03*
X205100000Y-172337500D03*
X205100000Y-171537500D03*
%TD*%
D24*
%TO.C,D27*%
X208000000Y-146650000D03*
X208000000Y-143350000D03*
%TD*%
D27*
%TO.C,D8*%
X188750000Y-168000000D03*
X191250000Y-168000000D03*
%TD*%
D28*
%TO.C,R6*%
X185745400Y-160741700D03*
X183920400Y-160741700D03*
%TD*%
D19*
%TO.C,J9*%
X218620000Y-75640000D03*
D20*
X218620000Y-73100000D03*
X218620000Y-70560000D03*
%TD*%
D29*
%TO.C,Q9*%
X182225000Y-111700000D03*
X182225000Y-113600000D03*
X184500000Y-112650000D03*
%TD*%
D28*
%TO.C,R65*%
X191437500Y-108550000D03*
X189612500Y-108550000D03*
%TD*%
%TO.C,R21*%
X171562500Y-107400000D03*
X169737500Y-107400000D03*
%TD*%
D30*
%TO.C,D26*%
X149700000Y-171400000D03*
X148300000Y-171400000D03*
%TD*%
D31*
%TO.C,C24*%
X141800000Y-169062500D03*
X141800000Y-167337500D03*
%TD*%
D15*
%TO.C,R24*%
X177937500Y-98800000D03*
X179762500Y-98800000D03*
%TD*%
D17*
%TO.C,SW5*%
X185650001Y-143230201D03*
X179150000Y-143230201D03*
X185650001Y-138730200D03*
X179150000Y-138730200D03*
D18*
X182400000Y-145069601D03*
%TD*%
D32*
%TO.C,C9*%
X191440000Y-119937500D03*
X191440000Y-121662500D03*
%TD*%
D15*
%TO.C,R4*%
X198975000Y-157000000D03*
X200800000Y-157000000D03*
%TD*%
D28*
%TO.C,R69*%
X180362500Y-108500000D03*
X178537500Y-108500000D03*
%TD*%
D33*
%TO.C,D31*%
X214020000Y-98660000D03*
X214020000Y-100060000D03*
%TD*%
D34*
%TO.C,U5*%
X164987500Y-77650000D03*
X165487500Y-77650000D03*
X165987500Y-77650000D03*
X166487500Y-77650000D03*
X166487500Y-75750000D03*
X165987500Y-75750000D03*
X165487500Y-75750000D03*
X164987500Y-75750000D03*
D35*
X165737500Y-76700000D03*
%TD*%
D28*
%TO.C,R27*%
X192137500Y-100050000D03*
X190312500Y-100050000D03*
%TD*%
D31*
%TO.C,C14*%
X201150000Y-134132500D03*
X201150000Y-132407500D03*
%TD*%
D36*
%TO.C,R39*%
X143900000Y-161843700D03*
X143900000Y-160018700D03*
%TD*%
D28*
%TO.C,R53*%
X215012500Y-162400000D03*
X213187500Y-162400000D03*
%TD*%
D19*
%TO.C,J13*%
X218600000Y-126477500D03*
D20*
X218600000Y-123937500D03*
X218600000Y-121397500D03*
X218600000Y-118857500D03*
X218600000Y-116317500D03*
%TD*%
D13*
%TO.C,U8*%
X149920000Y-153520000D03*
D14*
X152460000Y-153520000D03*
X155000000Y-153520000D03*
X157540000Y-153520000D03*
X160080000Y-153520000D03*
X160080000Y-138280000D03*
X157540000Y-138280000D03*
X155000000Y-138280000D03*
X152460000Y-138280000D03*
X149920000Y-138280000D03*
%TD*%
D37*
%TO.C,Y1*%
X202162500Y-163950000D03*
X202162500Y-166450000D03*
%TD*%
D36*
%TO.C,R7*%
X208425000Y-137987500D03*
X208425000Y-136162500D03*
%TD*%
%TO.C,R51*%
X144000000Y-131800000D03*
X144000000Y-129975000D03*
%TD*%
D17*
%TO.C,SW3*%
X185800001Y-122900001D03*
X179300000Y-122900001D03*
X185800001Y-118400000D03*
X179300000Y-118400000D03*
D18*
X182550000Y-124739401D03*
%TD*%
D15*
%TO.C,R15*%
X161637500Y-105900000D03*
X163462500Y-105900000D03*
%TD*%
D33*
%TO.C,D30*%
X214020000Y-89560000D03*
X214020000Y-90960000D03*
%TD*%
D30*
%TO.C,D19*%
X189540000Y-138680000D03*
X188140000Y-138680000D03*
%TD*%
D29*
%TO.C,Q7*%
X194000000Y-98600000D03*
X194000000Y-100500000D03*
X196275000Y-99550000D03*
%TD*%
D30*
%TO.C,D17*%
X189240000Y-118400000D03*
X187840000Y-118400000D03*
%TD*%
D15*
%TO.C,R10*%
X188027500Y-121500000D03*
X189852500Y-121500000D03*
%TD*%
D38*
%TO.C,C22*%
X205762500Y-152500000D03*
X204037500Y-152500000D03*
%TD*%
D28*
%TO.C,R52*%
X215012500Y-156200000D03*
X213187500Y-156200000D03*
%TD*%
D29*
%TO.C,Q8*%
X172000000Y-98900000D03*
X172000000Y-100800000D03*
X174275000Y-99850000D03*
%TD*%
%TO.C,Q10*%
X193300000Y-105600000D03*
X193300000Y-107500000D03*
X195575000Y-106550000D03*
%TD*%
D11*
%TO.C,D21*%
X137860000Y-147000000D03*
D12*
X140400000Y-147000000D03*
%TD*%
D39*
%TO.C,MK2*%
X138190000Y-168000000D03*
D40*
X140264000Y-167100000D03*
X139442000Y-167100000D03*
D41*
X138190000Y-168662500D03*
D40*
X139442000Y-168900000D03*
X140264000Y-168900000D03*
X140264000Y-168000000D03*
%TD*%
D42*
%TO.C,Q11*%
X149600000Y-158581200D03*
X150600000Y-158581200D03*
X150100000Y-157281200D03*
%TD*%
D21*
%TO.C,D36*%
X213000000Y-133700000D03*
X214400000Y-133700000D03*
%TD*%
D43*
%TO.C,D37*%
X193200000Y-148250000D03*
X196500000Y-148250000D03*
%TD*%
D28*
%TO.C,R49*%
X140712500Y-125200000D03*
X138887500Y-125200000D03*
%TD*%
D19*
%TO.C,J11*%
X218520000Y-112300000D03*
D20*
X218520000Y-109760000D03*
X218520000Y-107220000D03*
%TD*%
D19*
%TO.C,J1*%
X219500000Y-168840000D03*
D20*
X219500000Y-166300000D03*
%TD*%
D44*
%TO.C,U13*%
X208100000Y-158000000D03*
X208100000Y-157350000D03*
X208100000Y-156700000D03*
X208100000Y-156050000D03*
X208100000Y-155400000D03*
D45*
X207037500Y-154337500D03*
X206387500Y-154337500D03*
X205737500Y-154337500D03*
X205087500Y-154337500D03*
X204437500Y-154337500D03*
D44*
X203375000Y-155400000D03*
X203375000Y-156050000D03*
X203375000Y-156700000D03*
X203375000Y-157350000D03*
X203375000Y-158000000D03*
D45*
X204437500Y-159062500D03*
X205087500Y-159062500D03*
X205737500Y-159062500D03*
X206387500Y-159062500D03*
X207037500Y-159062500D03*
D46*
X205737500Y-156700000D03*
%TD*%
D47*
%TO.C,Q17*%
X182332900Y-164291700D03*
X182332900Y-166191700D03*
X185332900Y-165241700D03*
%TD*%
D48*
%TO.C,H1*%
X139000000Y-64000000D03*
%TD*%
D32*
%TO.C,C21*%
X211800000Y-164637500D03*
X211800000Y-166362500D03*
%TD*%
D49*
%TO.C,U2*%
X190720000Y-160550000D03*
X191220000Y-160550000D03*
X191720000Y-160550000D03*
X192220000Y-160550000D03*
X192720000Y-160550000D03*
X193220000Y-160550000D03*
X193720000Y-160550000D03*
D50*
X194670000Y-159600000D03*
X194670000Y-159100000D03*
X194670000Y-158600000D03*
X194670000Y-158100000D03*
X194670000Y-157600000D03*
X194670000Y-157100000D03*
X194670000Y-156600000D03*
D49*
X193720000Y-155650000D03*
X193220000Y-155650000D03*
X192720000Y-155650000D03*
X192220000Y-155650000D03*
X191720000Y-155650000D03*
X191220000Y-155650000D03*
X190720000Y-155650000D03*
D50*
X189770000Y-156600000D03*
X189770000Y-157100000D03*
X189770000Y-157600000D03*
X189770000Y-158100000D03*
X189770000Y-158600000D03*
X189770000Y-159100000D03*
X189770000Y-159600000D03*
D51*
X192220000Y-158100000D03*
%TD*%
D52*
%TO.C,PS1*%
X190700000Y-85000000D03*
X200700000Y-85000000D03*
X205700000Y-65000000D03*
X185700000Y-65000000D03*
%TD*%
D21*
%TO.C,D13*%
X213800000Y-157900000D03*
X215200000Y-157900000D03*
%TD*%
D53*
%TO.C,F1*%
X175000000Y-63100000D03*
X170000000Y-63100000D03*
D54*
X175000000Y-81900000D03*
X170000000Y-81900000D03*
%TD*%
D55*
%TO.C,D3*%
X144400000Y-115600000D03*
X141600000Y-115600000D03*
%TD*%
D28*
%TO.C,R33*%
X191437500Y-107050000D03*
X189612500Y-107050000D03*
%TD*%
D36*
%TO.C,R40*%
X142400000Y-161843700D03*
X142400000Y-160018700D03*
%TD*%
%TO.C,R35*%
X151100000Y-161843700D03*
X151100000Y-160018700D03*
%TD*%
D15*
%TO.C,R11*%
X188427500Y-131300000D03*
X190252500Y-131300000D03*
%TD*%
%TO.C,R13*%
X188357500Y-141780000D03*
X190182500Y-141780000D03*
%TD*%
D36*
%TO.C,R37*%
X147500000Y-161843700D03*
X147500000Y-160018700D03*
%TD*%
%TO.C,R8*%
X204000000Y-150012500D03*
X204000000Y-148187500D03*
%TD*%
D56*
%TO.C,C4*%
X206587500Y-112869800D03*
X208312500Y-112869800D03*
%TD*%
D57*
%TO.C,C12*%
X205700000Y-146537500D03*
X205700000Y-144462500D03*
%TD*%
D56*
%TO.C,C16*%
X177575000Y-170900000D03*
X179300000Y-170900000D03*
%TD*%
D43*
%TO.C,D9*%
X188050000Y-165800000D03*
X191350000Y-165800000D03*
%TD*%
D42*
%TO.C,Q15*%
X138800000Y-158581200D03*
X139800000Y-158581200D03*
X139300000Y-157281200D03*
%TD*%
D28*
%TO.C,R57*%
X141312500Y-165500000D03*
X139487500Y-165500000D03*
%TD*%
D15*
%TO.C,R26*%
X178537500Y-105500000D03*
X180362500Y-105500000D03*
%TD*%
D30*
%TO.C,D23*%
X149700000Y-166000000D03*
X148300000Y-166000000D03*
%TD*%
D17*
%TO.C,SW7*%
X204200001Y-127200001D03*
X197700000Y-127200001D03*
X204200001Y-122700000D03*
X197700000Y-122700000D03*
D18*
X200950000Y-129039401D03*
%TD*%
D33*
%TO.C,D33*%
X214020000Y-70960000D03*
X214020000Y-72360000D03*
%TD*%
D56*
%TO.C,C5*%
X206587500Y-124269800D03*
X208312500Y-124269800D03*
%TD*%
D28*
%TO.C,R45*%
X206337500Y-139575000D03*
X204512500Y-139575000D03*
%TD*%
D29*
%TO.C,Q5*%
X181625000Y-98850000D03*
X181625000Y-100750000D03*
X183900000Y-99800000D03*
%TD*%
D28*
%TO.C,R3*%
X200812500Y-158600000D03*
X198987500Y-158600000D03*
%TD*%
D58*
%TO.C,R50*%
X146000000Y-129975000D03*
X146000000Y-131800000D03*
%TD*%
D15*
%TO.C,R22*%
X169737500Y-105900000D03*
X171562500Y-105900000D03*
%TD*%
D59*
%TO.C,D20*%
X193350000Y-92362500D03*
X190050000Y-92362500D03*
%TD*%
D60*
%TO.C,D6*%
X215300000Y-170300000D03*
X215300000Y-168900000D03*
%TD*%
D36*
%TO.C,R38*%
X146000000Y-161843700D03*
X146000000Y-160018700D03*
%TD*%
D15*
%TO.C,R41*%
X181287500Y-153200000D03*
X183112500Y-153200000D03*
%TD*%
D61*
%TO.C,J14*%
X160400000Y-72670000D03*
X160400000Y-64470000D03*
X155400000Y-72670000D03*
X155400000Y-64470000D03*
X150400000Y-72670000D03*
X150400000Y-64470000D03*
%TD*%
D30*
%TO.C,D29*%
X207750000Y-122669800D03*
X206350000Y-122669800D03*
%TD*%
D62*
%TO.C,JP2*%
X199400000Y-150850000D03*
X199400000Y-149550000D03*
%TD*%
D15*
%TO.C,R9*%
X188027500Y-119900000D03*
X189852500Y-119900000D03*
%TD*%
D25*
%TO.C,C2*%
X180262500Y-176400000D03*
X182337500Y-176400000D03*
%TD*%
D15*
%TO.C,R32*%
X178537500Y-111700000D03*
X180362500Y-111700000D03*
%TD*%
D28*
%TO.C,R2*%
X200812500Y-153400000D03*
X198987500Y-153400000D03*
%TD*%
D55*
%TO.C,D5*%
X208500000Y-150300000D03*
X205700000Y-150300000D03*
%TD*%
D56*
%TO.C,C3*%
X177587500Y-172410000D03*
X179312500Y-172410000D03*
%TD*%
D63*
%TO.C,C17*%
X203600000Y-91325000D03*
X203600000Y-93400000D03*
%TD*%
D13*
%TO.C,U7*%
X164270000Y-132720000D03*
D14*
X166810000Y-132720000D03*
X169350000Y-132720000D03*
X171890000Y-132720000D03*
X174430000Y-132720000D03*
X174430000Y-117480000D03*
X171890000Y-117480000D03*
X169350000Y-117480000D03*
X166810000Y-117480000D03*
X164270000Y-117480000D03*
%TD*%
D15*
%TO.C,R30*%
X168312500Y-98850000D03*
X170137500Y-98850000D03*
%TD*%
D60*
%TO.C,D16*%
X202500000Y-149500000D03*
X202500000Y-148100000D03*
%TD*%
D58*
%TO.C,R55*%
X143100000Y-145187500D03*
X143100000Y-147012500D03*
%TD*%
D64*
%TO.C,H2*%
X219000000Y-64000000D03*
%TD*%
D30*
%TO.C,D28*%
X207750000Y-111269800D03*
X206350000Y-111269800D03*
%TD*%
D28*
%TO.C,R23*%
X179762500Y-100300000D03*
X177937500Y-100300000D03*
%TD*%
D65*
%TO.C,U3*%
X201200000Y-138900000D03*
X201850000Y-138900000D03*
X202500000Y-138900000D03*
X202500000Y-136240000D03*
X201200000Y-136240000D03*
%TD*%
D28*
%TO.C,R1*%
X187512500Y-155500000D03*
X185687500Y-155500000D03*
%TD*%
D21*
%TO.C,D34*%
X213000000Y-123937500D03*
X214400000Y-123937500D03*
%TD*%
D58*
%TO.C,R54*%
X143400000Y-138187500D03*
X143400000Y-140012500D03*
%TD*%
D28*
%TO.C,R62*%
X192137500Y-101550000D03*
X190312500Y-101550000D03*
%TD*%
D62*
%TO.C,JP1*%
X199400000Y-144700000D03*
X199400000Y-146000000D03*
X199400000Y-147300000D03*
%TD*%
D28*
%TO.C,R31*%
X180362500Y-113200000D03*
X178537500Y-113200000D03*
%TD*%
%TO.C,R43*%
X207512500Y-148300000D03*
X205687500Y-148300000D03*
%TD*%
D32*
%TO.C,C8*%
X207100000Y-174375000D03*
X207100000Y-176100000D03*
%TD*%
D10*
%TO.C,D11*%
X193100000Y-165650000D03*
X193100000Y-168150000D03*
%TD*%
D25*
%TO.C,C7*%
X199062500Y-155200000D03*
X201137500Y-155200000D03*
%TD*%
D19*
%TO.C,J7*%
X218700000Y-133640000D03*
D20*
X218700000Y-131100000D03*
%TD*%
D15*
%TO.C,R14*%
X188327500Y-140180000D03*
X190152500Y-140180000D03*
%TD*%
D13*
%TO.C,U9*%
X164070000Y-153520000D03*
D14*
X166610000Y-153520000D03*
X169150000Y-153520000D03*
X171690000Y-153520000D03*
X174230000Y-153520000D03*
X174230000Y-138280000D03*
X171690000Y-138280000D03*
X169150000Y-138280000D03*
X166610000Y-138280000D03*
X164070000Y-138280000D03*
%TD*%
D28*
%TO.C,R25*%
X180362500Y-107000000D03*
X178537500Y-107000000D03*
%TD*%
D66*
%TO.C,J2*%
X189292100Y-170608300D03*
X190142101Y-170608300D03*
X190992099Y-170608300D03*
X191842100Y-170608300D03*
X192692101Y-170608300D03*
X193542102Y-170608300D03*
X194392100Y-170608300D03*
X195242101Y-170608300D03*
X195242101Y-171958300D03*
X194392100Y-171958300D03*
X193542102Y-171958300D03*
X192692101Y-171958300D03*
X191842100Y-171958300D03*
X190992099Y-171958300D03*
X190142101Y-171958300D03*
X189292100Y-171958300D03*
D67*
X187667099Y-171758300D03*
X187667099Y-174758299D03*
X196867101Y-171758300D03*
X196867101Y-174758299D03*
%TD*%
D29*
%TO.C,Q4*%
X173425000Y-105950000D03*
X173425000Y-107850000D03*
X175700000Y-106900000D03*
%TD*%
D68*
%TO.C,U4*%
X201385000Y-92862500D03*
X201385000Y-92362500D03*
X201385000Y-91862500D03*
X199415000Y-91862500D03*
X199415000Y-92362500D03*
X199415000Y-92862500D03*
D69*
X200400000Y-92362500D03*
%TD*%
D15*
%TO.C,R19*%
X208787500Y-160600000D03*
X210612500Y-160600000D03*
%TD*%
D28*
%TO.C,R68*%
X179762500Y-101800000D03*
X177937500Y-101800000D03*
%TD*%
D30*
%TO.C,D24*%
X149700000Y-167800000D03*
X148300000Y-167800000D03*
%TD*%
D56*
%TO.C,C18*%
X164975000Y-74200000D03*
X166700000Y-74200000D03*
%TD*%
D29*
%TO.C,Q6*%
X182225000Y-105550000D03*
X182225000Y-107450000D03*
X184500000Y-106500000D03*
%TD*%
D64*
%TO.C,H3*%
X219000000Y-176000000D03*
%TD*%
D70*
%TO.C,U12*%
X199825000Y-174232500D03*
X199825000Y-175502500D03*
X199825000Y-176772500D03*
X199825000Y-178042500D03*
X204775000Y-178042500D03*
X204775000Y-176772500D03*
X204775000Y-175502500D03*
X204775000Y-174232500D03*
%TD*%
D32*
%TO.C,C11*%
X191770000Y-140217500D03*
X191770000Y-141942500D03*
%TD*%
D33*
%TO.C,D32*%
X214020000Y-107760000D03*
X214020000Y-109160000D03*
%TD*%
D32*
%TO.C,C10*%
X191840000Y-129817500D03*
X191840000Y-131542500D03*
%TD*%
D28*
%TO.C,R59*%
X153925000Y-166400000D03*
X152100000Y-166400000D03*
%TD*%
D62*
%TO.C,JP4*%
X201912500Y-161900000D03*
X201912500Y-160600000D03*
%TD*%
D36*
%TO.C,R47*%
X138800000Y-161843700D03*
X138800000Y-160018700D03*
%TD*%
D42*
%TO.C,Q13*%
X142400000Y-158581200D03*
X143400000Y-158581200D03*
X142900000Y-157281200D03*
%TD*%
D71*
%TO.C,K1*%
X140300000Y-95400000D03*
D72*
X158100000Y-85300000D03*
X158100000Y-92900000D03*
D73*
X154300000Y-108200000D03*
X144100000Y-108200000D03*
%TD*%
D28*
%TO.C,R5*%
X185745400Y-162641700D03*
X183920400Y-162641700D03*
%TD*%
%TO.C,R20*%
X210612500Y-162100000D03*
X208787500Y-162100000D03*
%TD*%
D70*
%TO.C,U11*%
X204662500Y-164560000D03*
X204662500Y-165830000D03*
X204662500Y-167100000D03*
X204662500Y-168370000D03*
X209612500Y-168370000D03*
X209612500Y-167100000D03*
X209612500Y-165830000D03*
X209612500Y-164560000D03*
%TD*%
D21*
%TO.C,D10*%
X212900000Y-116337500D03*
X214300000Y-116337500D03*
%TD*%
D56*
%TO.C,C1*%
X180237500Y-178200000D03*
X181962500Y-178200000D03*
%TD*%
D28*
%TO.C,R63*%
X170137500Y-101850000D03*
X168312500Y-101850000D03*
%TD*%
D15*
%TO.C,R42*%
X181287500Y-151600000D03*
X183112500Y-151600000D03*
%TD*%
D17*
%TO.C,SW4*%
X185750001Y-132630201D03*
X179250000Y-132630201D03*
X185750001Y-128130200D03*
X179250000Y-128130200D03*
D18*
X182500000Y-134469601D03*
%TD*%
D64*
%TO.C,H4*%
X139000000Y-176000000D03*
%TD*%
D15*
%TO.C,R58*%
X139487500Y-164000000D03*
X141312500Y-164000000D03*
%TD*%
%TO.C,R34*%
X189612500Y-105550000D03*
X191437500Y-105550000D03*
%TD*%
D74*
%TO.C,RV1*%
X198925000Y-134075000D03*
D75*
X196425000Y-136575000D03*
X198925000Y-139075000D03*
%TD*%
D28*
%TO.C,R56*%
X215012500Y-159400000D03*
X213187500Y-159400000D03*
%TD*%
D47*
%TO.C,Q16*%
X182332900Y-157191700D03*
X182332900Y-159091700D03*
X185332900Y-158141700D03*
%TD*%
D28*
%TO.C,R64*%
X180362500Y-114700000D03*
X178537500Y-114700000D03*
%TD*%
%TO.C,R67*%
X171562500Y-108900000D03*
X169737500Y-108900000D03*
%TD*%
D31*
%TO.C,C20*%
X207100000Y-172700000D03*
X207100000Y-170975000D03*
%TD*%
D15*
%TO.C,R12*%
X188427500Y-129700000D03*
X190252500Y-129700000D03*
%TD*%
D11*
%TO.C,D4*%
X138000000Y-140000000D03*
D12*
X140540000Y-140000000D03*
%TD*%
D19*
%TO.C,J10*%
X218520000Y-103200000D03*
D20*
X218520000Y-100660000D03*
X218520000Y-98120000D03*
%TD*%
D25*
%TO.C,C6*%
X195462500Y-162600000D03*
X197537500Y-162600000D03*
%TD*%
D28*
%TO.C,R16*%
X163462500Y-107400000D03*
X161637500Y-107400000D03*
%TD*%
D36*
%TO.C,R36*%
X149600000Y-161843700D03*
X149600000Y-160018700D03*
%TD*%
D28*
%TO.C,R66*%
X163462500Y-108900000D03*
X161637500Y-108900000D03*
%TD*%
D33*
%TO.C,D22*%
X214020000Y-80560000D03*
X214020000Y-81960000D03*
%TD*%
D76*
%TO.C,U1*%
X173950000Y-179120000D03*
X173950000Y-177850000D03*
X173950000Y-176580000D03*
X173950000Y-175310000D03*
X173950000Y-174040000D03*
X173950000Y-172770000D03*
X173950000Y-171500000D03*
X173950000Y-170230000D03*
X173950000Y-168960000D03*
X173950000Y-167690000D03*
X173950000Y-166420000D03*
X173950000Y-165150000D03*
X173950000Y-163880000D03*
X173950000Y-162610000D03*
D77*
X172185000Y-161360000D03*
X170915000Y-161360000D03*
X169645000Y-161360000D03*
X168375000Y-161360000D03*
X167105000Y-161360000D03*
X165835000Y-161360000D03*
X164565000Y-161360000D03*
X163295000Y-161360000D03*
X162025000Y-161360000D03*
X160755000Y-161360000D03*
X159485000Y-161360000D03*
X158215000Y-161360000D03*
D76*
X156450000Y-162610000D03*
X156450000Y-163880000D03*
X156450000Y-165150000D03*
X156450000Y-166420000D03*
X156450000Y-167690000D03*
X156450000Y-168960000D03*
X156450000Y-170230000D03*
X156450000Y-171500000D03*
X156450000Y-172770000D03*
X156450000Y-174040000D03*
X156450000Y-175310000D03*
X156450000Y-176580000D03*
X156450000Y-177850000D03*
X156450000Y-179120000D03*
D78*
X168100000Y-172100000D03*
X168100000Y-170700000D03*
X167400000Y-172800000D03*
X167400000Y-171400000D03*
X167400000Y-170000000D03*
X166700000Y-172100000D03*
D79*
X166700000Y-171400000D03*
D78*
X166700000Y-170700000D03*
X166000000Y-172800000D03*
X166000000Y-171400000D03*
X166000000Y-170000000D03*
X165300000Y-172100000D03*
X165300000Y-170700000D03*
%TD*%
D19*
%TO.C,J12*%
X218520000Y-84940000D03*
D20*
X218520000Y-82400000D03*
X218520000Y-79860000D03*
%TD*%
D36*
%TO.C,R48*%
X212420000Y-108972500D03*
X212420000Y-107147500D03*
%TD*%
D28*
%TO.C,R29*%
X170137500Y-100350000D03*
X168312500Y-100350000D03*
%TD*%
D29*
%TO.C,Q3*%
X165325000Y-105950000D03*
X165325000Y-107850000D03*
X167600000Y-106900000D03*
%TD*%
D36*
%TO.C,R18*%
X201300000Y-169912500D03*
X201300000Y-168087500D03*
%TD*%
%TO.C,R17*%
X199800000Y-169912500D03*
X199800000Y-168087500D03*
%TD*%
D42*
%TO.C,Q12*%
X146000000Y-158581200D03*
X147000000Y-158581200D03*
X146500000Y-157281200D03*
%TD*%
D15*
%TO.C,R28*%
X190312500Y-98550000D03*
X192137500Y-98550000D03*
%TD*%
D21*
%TO.C,D1*%
X213800000Y-160900000D03*
X215200000Y-160900000D03*
%TD*%
D28*
%TO.C,R60*%
X154412500Y-163900000D03*
X152587500Y-163900000D03*
%TD*%
D19*
%TO.C,J4*%
X218620000Y-140075000D03*
D20*
X218620000Y-137535000D03*
%TD*%
D80*
%TO.C,J3*%
X219500000Y-162480000D03*
D54*
X219500000Y-159940000D03*
X219500000Y-157400000D03*
%TD*%
D36*
%TO.C,R46*%
X140300000Y-161843700D03*
X140300000Y-160018700D03*
%TD*%
D31*
%TO.C,C23*%
X209700000Y-157462500D03*
X209700000Y-155737500D03*
%TD*%
D30*
%TO.C,D18*%
X189640000Y-128100000D03*
X188240000Y-128100000D03*
%TD*%
D81*
%TO.C,J5*%
X219500000Y-154000000D03*
X222000000Y-154000000D03*
X214500000Y-149000000D03*
X219500000Y-144000000D03*
X222000000Y-144000000D03*
D82*
X214500000Y-154000000D03*
D83*
X219500000Y-149000000D03*
D82*
X214500000Y-144000000D03*
%TD*%
D43*
%TO.C,D38*%
X193200000Y-151600000D03*
X196500000Y-151600000D03*
%TD*%
D84*
%TO.C,J6*%
X144800000Y-166260000D03*
D85*
X146070000Y-166260000D03*
X144800000Y-167530000D03*
X146070000Y-167530000D03*
X144800000Y-168800000D03*
X146070000Y-168800000D03*
X144800000Y-170070000D03*
X146070000Y-170070000D03*
X144800000Y-171340000D03*
X146070000Y-171340000D03*
%TD*%
D30*
%TO.C,D25*%
X149700000Y-169600000D03*
X148300000Y-169600000D03*
%TD*%
D31*
%TO.C,C13*%
X203900000Y-146462500D03*
X203900000Y-144737500D03*
%TD*%
M02*
