M48
; DRILL file {KiCad 9.0.2} date 2025-06-06T06:26:32-0500
; FORMAT={-:-/ absolute / metric / decimal}
; #@! TF.CreationDate,2025-06-06T06:26:32-05:00
; #@! TF.GenerationSoftware,Kicad,Pcbnew,9.0.2
; #@! TF.FileFunction,Plated,1,4,PTH
FMAT,2
METRIC
; #@! TA.AperFunction,Plated,PTH,ComponentDrill
T1C0.200
; #@! TA.AperFunction,Plated,PTH,ViaDrill
T2C0.300
; #@! TA.AperFunction,Plated,PTH,ComponentDrill
T3C0.300
; #@! TA.AperFunction,Plated,PTH,ComponentDrill
T4C0.381
; #@! TA.AperFunction,Plated,PTH,ComponentDrill
T5C0.400
; #@! TA.AperFunction,Plated,PTH,ComponentDrill
T6C0.600
; #@! TA.AperFunction,Plated,PTH,ComponentDrill
T7C0.650
; #@! TA.AperFunction,Plated,PTH,ComponentDrill
T8C0.800
; #@! TA.AperFunction,Plated,PTH,ComponentDrill
T9C0.900
; #@! TA.AperFunction,Plated,PTH,ComponentDrill
T10C0.991
; #@! TA.AperFunction,Plated,PTH,ComponentDrill
T11C1.100
; #@! TA.AperFunction,Plated,PTH,ComponentDrill
T12C1.170
; #@! TA.AperFunction,Plated,PTH,ComponentDrill
T13C1.190
; #@! TA.AperFunction,Plated,PTH,ComponentDrill
T14C1.200
; #@! TA.AperFunction,Plated,PTH,ComponentDrill
T15C1.300
; #@! TA.AperFunction,Plated,PTH,ComponentDrill
T16C2.500
; #@! TA.AperFunction,Plated,PTH,ComponentDrill
T17C3.200
%
G90
G05
T1
X165.3Y-170.7
X165.3Y-172.1
X166.0Y-170.0
X166.0Y-171.4
X166.0Y-172.8
X166.7Y-170.7
X166.7Y-172.1
X167.4Y-170.0
X167.4Y-171.4
X167.4Y-172.8
X168.1Y-170.7
X168.1Y-172.1
X204.737Y-155.7
X204.737Y-156.7
X204.737Y-157.7
X205.737Y-155.7
X205.737Y-156.7
X205.737Y-157.7
X206.737Y-155.7
X206.737Y-156.7
X206.737Y-157.7
T2
X136.7Y-171.5
X137.3Y-163.4
X137.3Y-165.7
X137.8Y-151.4
X138.2Y-169.1
X138.265Y-155.628
X139.3Y-166.5
X140.113Y-166.487
X141.3Y-151.4
X141.6Y-116.5
X141.6Y-135.4
X141.7Y-133.4
X141.7Y-162.9
X141.7Y-166.4
X141.9Y-142.6
X142.3Y-170.6
X142.5Y-165.8
X142.6Y-121.7
X142.6Y-123.7
X142.6Y-169.0
X143.8Y-142.6
X144.0Y-151.4
X144.084Y-155.628
X144.1Y-145.2
X144.95Y-161.862
X145.0Y-124.8
X146.0Y-129.15
X146.8Y-174.7
X146.8Y-177.2
X146.994Y-156.082
X147.1Y-118.1
X147.3Y-163.1
X148.602Y-135.577
X149.903Y-140.948
X150.3Y-166.0
X150.3Y-167.85
X150.3Y-169.6
X150.3Y-171.4
X151.9Y-163.4
X152.0Y-147.2
X152.207Y-162.237
X153.8Y-114.2
X153.9Y-161.0
X154.7Y-175.3
X154.984Y-167.354
X155.1Y-162.6
X155.3Y-174.0
X155.35Y-177.85
X155.4Y-179.15
X157.5Y-179.1
X158.537Y-167.247
X158.632Y-158.732
X158.9Y-110.0
X159.9Y-147.7
X160.0Y-114.0
X160.1Y-107.4
X160.2Y-112.2
X160.4Y-103.8
X161.542Y-158.746
X161.67Y-111.186
X162.101Y-162.663
X163.655Y-157.95
X164.132Y-162.633
X164.3Y-107.6
X164.4Y-111.0
X164.6Y-78.55
X164.8Y-104.0
X165.0Y-73.4
X165.5Y-78.55
X166.0Y-75.15
X166.3Y-78.55
X166.7Y-73.4
X166.7Y-103.3
X166.865Y-100.32
X166.9Y-75.75
X166.9Y-77.65
X167.55Y-74.2
X167.7Y-103.3
X168.186Y-162.663
X169.284Y-156.568
X169.575Y-115.066
X170.139Y-104.515
X170.271Y-156.22
X170.7Y-97.2
X170.975Y-100.55
X172.262Y-164.282
X172.4Y-107.4
X172.4Y-177.8
X172.9Y-179.1
X173.343Y-104.628
X173.895Y-130.312
X174.9Y-159.6
X174.984Y-156.883
X175.0Y-162.6
X175.0Y-174.1
X175.0Y-175.3
X175.0Y-179.15
X175.3Y-97.2
X175.3Y-172.8
X175.5Y-177.8
X175.6Y-169.0
X175.6Y-170.2
X176.091Y-114.039
X176.091Y-130.093
X176.21Y-98.223
X176.303Y-155.979
X176.6Y-110.1
X176.7Y-103.9
X177.009Y-156.701
X177.588Y-173.3
X178.048Y-122.9
X178.5Y-168.4
X179.3Y-171.65
X179.5Y-135.1
X179.6Y-107.0
X179.6Y-113.2
X180.063Y-131.321
X180.15Y-170.95
X180.15Y-172.4
X180.3Y-153.2
X180.6Y-164.4
X180.7Y-100.6
X181.0Y-97.4
X181.2Y-150.6
X181.5Y-103.1
X181.6Y-161.7
X181.6Y-167.8
X181.6Y-171.1
X181.75Y-169.8
X182.2Y-106.9
X182.2Y-113.0
X182.3Y-177.4
X182.5Y-174.3
X183.4Y-137.2
X183.4Y-172.8
X183.5Y-102.2
X183.6Y-141.4
X184.1Y-165.3
X184.3Y-137.2
X184.474Y-149.511
X184.9Y-97.4
X184.9Y-155.5
X185.25Y-108.367
X186.0Y-99.7
X186.028Y-150.519
X186.7Y-149.6
X186.8Y-171.7
X186.8Y-174.7
X187.0Y-166.2
X187.3Y-125.5
X187.4Y-90.2
X187.4Y-92.4
X187.4Y-94.3
X187.5Y-154.5
X187.647Y-101.222
X187.73Y-102.117
X187.95Y-168.0
X188.477Y-107.427
X188.551Y-158.2
X188.6Y-159.0
X188.75Y-168.8
X189.25Y-117.75
X189.55Y-138.05
X189.65Y-127.45
X189.85Y-118.4
X190.1Y-135.2
X190.15Y-138.7
X190.25Y-128.1
X190.3Y-132.6
X191.1Y-149.9
X191.2Y-161.8
X191.45Y-122.5
X191.75Y-142.75
X191.8Y-139.4
X191.85Y-132.35
X192.2Y-120.0
X192.2Y-121.65
X192.262Y-107.35
X192.4Y-151.6
X192.55Y-141.95
X192.6Y-131.55
X192.975Y-100.15
X193.1Y-164.85
X193.1Y-166.45
X193.3Y-135.4
X193.9Y-138.4
X194.3Y-94.5
X194.4Y-89.0
X194.5Y-96.2
X194.8Y-153.4
X195.1Y-120.0
X195.1Y-164.85
X195.1Y-166.45
X195.8Y-174.7
X195.9Y-165.6
X196.7Y-139.9
X196.7Y-156.4
X196.9Y-160.9
X196.95Y-142.25
X197.25Y-91.35
X197.35Y-148.3
X197.4Y-134.1
X197.5Y-161.6
X197.7Y-171.8
X198.0Y-135.6
X198.1Y-92.35
X198.6Y-178.037
X199.0Y-169.9
X199.2Y-102.9
X200.0Y-164.3
X200.4Y-91.35
X200.4Y-92.362
X200.4Y-93.4
X200.4Y-132.4
X200.45Y-149.6
X200.55Y-168.1
X200.663Y-160.843
X200.95Y-114.47
X200.95Y-125.87
X200.95Y-156.2
X201.0Y-120.1
X201.1Y-178.037
X201.2Y-131.55
X201.4Y-93.4
X201.4Y-96.1
X201.6Y-89.1
X201.6Y-157.0
X201.6Y-158.65
X201.8Y-140.0
X201.9Y-132.4
X202.0Y-155.2
X202.5Y-150.05
X202.6Y-93.4
X202.6Y-156.7
X202.8Y-168.2
X202.8Y-171.537
X202.8Y-172.338
X203.2Y-152.5
X203.4Y-161.9
X203.5Y-175.438
X203.6Y-89.1
X203.6Y-94.3
X203.9Y-143.9
X204.55Y-142.4
X204.6Y-93.4
X204.7Y-144.45
X205.65Y-171.537
X205.7Y-143.6
X205.9Y-96.1
X205.912Y-168.4
X206.0Y-91.3
X206.0Y-167.1
X206.1Y-127.0
X206.1Y-175.537
X206.3Y-133.4
X206.35Y-140.35
X206.75Y-148.3
X207.0Y-153.5
X207.1Y-139.6
X207.1Y-176.938
X207.458Y-167.058
X207.85Y-170.987
X207.9Y-176.137
X208.057Y-165.043
X208.25Y-123.45
X208.3Y-111.3
X208.3Y-112.1
X208.3Y-113.65
X208.3Y-125.0
X208.3Y-148.3
X208.35Y-122.7
X208.4Y-135.4
X208.8Y-159.8
X209.15Y-112.9
X209.15Y-124.25
X209.2Y-136.15
X209.7Y-89.9
X209.7Y-91.2
X209.7Y-93.7
X209.7Y-96.1
X209.85Y-131.05
X210.1Y-159.8
X210.7Y-135.0
X211.3Y-128.1
X212.238Y-126.538
X212.3Y-116.35
X212.4Y-123.95
X212.4Y-133.7
X212.45Y-109.75
X212.6Y-166.4
X212.9Y-115.7
X212.9Y-116.95
X212.9Y-125.85
X212.9Y-127.2
X213.0Y-123.3
X213.0Y-133.05
X213.0Y-134.35
X213.1Y-137.7
X213.1Y-172.9
X213.2Y-157.9
X213.35Y-70.95
X213.4Y-107.75
X213.8Y-130.9
X213.8Y-157.2
X213.8Y-160.3
X213.85Y-123.95
X213.991Y-108.341
X214.0Y-70.35
X214.0Y-71.55
X214.0Y-79.95
X214.0Y-88.95
X214.0Y-98.05
X214.0Y-107.15
X214.029Y-81.121
X214.029Y-99.221
X214.034Y-90.126
X214.4Y-134.6
X214.65Y-70.95
X214.65Y-80.55
X214.65Y-89.55
X214.65Y-98.65
X215.3Y-170.9
T3
X165.237Y-76.7
X166.237Y-76.7
T4
X189.292Y-170.608
X189.292Y-171.958
X190.142Y-170.608
X190.142Y-171.958
X190.992Y-170.608
X190.992Y-171.958
X191.842Y-170.608
X191.842Y-171.958
X192.692Y-170.608
X192.692Y-171.958
X193.542Y-170.608
X193.542Y-171.958
X194.392Y-170.608
X194.392Y-171.958
X195.242Y-170.608
X195.242Y-171.958
T6
X170.0Y-86.0
X175.0Y-88.8
T7
X144.8Y-166.26
X144.8Y-167.53
X144.8Y-168.8
X144.8Y-170.07
X144.8Y-171.34
X146.07Y-166.26
X146.07Y-167.53
X146.07Y-168.8
X146.07Y-170.07
X146.07Y-171.34
T8
X149.92Y-138.28
X149.92Y-153.52
X150.12Y-117.48
X150.12Y-132.72
X152.46Y-138.28
X152.46Y-153.52
X152.66Y-117.48
X152.66Y-132.72
X155.0Y-138.28
X155.0Y-153.52
X155.2Y-117.48
X155.2Y-132.72
X157.54Y-138.28
X157.54Y-153.52
X157.74Y-117.48
X157.74Y-132.72
X160.08Y-138.28
X160.08Y-153.52
X160.28Y-117.48
X160.28Y-132.72
X164.07Y-138.28
X164.07Y-153.52
X164.27Y-117.48
X164.27Y-132.72
X166.61Y-138.28
X166.61Y-153.52
X166.81Y-117.48
X166.81Y-132.72
X169.15Y-138.28
X169.15Y-153.52
X169.35Y-117.48
X169.35Y-132.72
X171.69Y-138.28
X171.69Y-153.52
X171.89Y-117.48
X171.89Y-132.72
X174.23Y-138.28
X174.23Y-153.52
X174.43Y-117.48
X174.43Y-132.72
T9
X137.86Y-147.0
X138.0Y-129.387
X138.0Y-140.0
X140.4Y-147.0
X140.54Y-129.387
X140.54Y-140.0
X196.425Y-136.575
X198.925Y-134.075
X198.925Y-139.075
T10
X179.15Y-138.73
X179.15Y-143.23
X179.25Y-128.13
X179.25Y-132.63
X179.3Y-118.4
X179.3Y-122.9
X182.4Y-145.07
X182.5Y-134.47
X182.55Y-124.739
X185.65Y-138.73
X185.65Y-143.23
X185.75Y-128.13
X185.75Y-132.63
X185.8Y-118.4
X185.8Y-122.9
X197.7Y-111.3
X197.7Y-115.8
X197.7Y-122.7
X197.7Y-127.2
X200.95Y-117.639
X200.95Y-129.039
X204.2Y-111.3
X204.2Y-115.8
X204.2Y-122.7
X204.2Y-127.2
T11
X144.1Y-108.2
X150.4Y-64.47
X150.4Y-72.67
X154.3Y-108.2
X155.4Y-64.47
X155.4Y-72.67
X160.4Y-64.47
X160.4Y-72.67
T12
X170.0Y-63.1
X170.0Y-81.9
X175.0Y-63.1
X175.0Y-81.9
T13
X218.52Y-79.86
X218.52Y-82.4
X218.52Y-84.94
X218.52Y-88.96
X218.52Y-91.5
X218.52Y-94.04
X218.52Y-98.12
X218.52Y-100.66
X218.52Y-103.2
X218.52Y-107.22
X218.52Y-109.76
X218.52Y-112.3
X218.6Y-116.317
X218.6Y-118.858
X218.6Y-121.397
X218.6Y-123.938
X218.6Y-126.477
X218.62Y-70.56
X218.62Y-73.1
X218.62Y-75.64
X218.62Y-137.535
X218.62Y-140.075
X218.7Y-131.1
X218.7Y-133.64
X219.5Y-166.3
X219.5Y-168.84
T14
X185.7Y-65.0
X190.7Y-85.0
X200.7Y-85.0
X205.7Y-65.0
T15
X219.5Y-157.4
X219.5Y-159.94
X219.5Y-162.48
T16
X140.3Y-95.4
X158.1Y-85.3
X158.1Y-92.9
T17
X139.0Y-176.0
X219.0Y-64.0
X219.0Y-176.0
T5
G00X215.0Y-144.0
M15
G01X214.0Y-144.0
M16
G05
G00X214.0Y-154.0
M15
G01X215.0Y-154.0
M16
G05
G00X219.5Y-149.5
M15
G01X219.5Y-148.5
M16
G05
M30
