%TF.GenerationSoftware,KiCad,Pcbnew,9.0.2*%
%TF.CreationDate,2025-06-06T06:26:29-05:00*%
%TF.ProjectId,HVAC_ESP32_Node,48564143-5f45-4535-9033-325f4e6f6465,rev?*%
%TF.SameCoordinates,Original*%
%TF.FileFunction,Paste,Top*%
%TF.FilePolarity,Positive*%
%FSLAX46Y46*%
G04 Gerber Fmt 4.6, Leading zero omitted, Abs format (unit mm)*
G04 Created by KiCad (PCBNEW 9.0.2) date 2025-06-06 06:26:29*
%MOMM*%
%LPD*%
G01*
G04 APERTURE LIST*
G04 Aperture macros list*
%AMRoundRect*
0 Rectangle with rounded corners*
0 $1 Rounding radius*
0 $2 $3 $4 $5 $6 $7 $8 $9 X,Y pos of 4 corners*
0 Add a 4 corners polygon primitive as box body*
4,1,4,$2,$3,$4,$5,$6,$7,$8,$9,$2,$3,0*
0 Add four circle primitives for the rounded corners*
1,1,$1+$1,$2,$3*
1,1,$1+$1,$4,$5*
1,1,$1+$1,$6,$7*
1,1,$1+$1,$8,$9*
0 Add four rect primitives between the rounded corners*
20,1,$1+$1,$2,$3,$4,$5,0*
20,1,$1+$1,$4,$5,$6,$7,0*
20,1,$1+$1,$6,$7,$8,$9,0*
20,1,$1+$1,$8,$9,$2,$3,0*%
G04 Aperture macros list end*
%ADD10C,0.000000*%
%ADD11C,0.010000*%
%ADD12RoundRect,0.250000X-0.250000X0.250000X-0.250000X-0.250000X0.250000X-0.250000X0.250000X0.250000X0*%
%ADD13RoundRect,0.237500X-0.250000X-0.237500X0.250000X-0.237500X0.250000X0.237500X-0.250000X0.237500X0*%
%ADD14RoundRect,0.150000X0.150000X-0.512500X0.150000X0.512500X-0.150000X0.512500X-0.150000X-0.512500X0*%
%ADD15RoundRect,0.150000X0.150000X0.200000X-0.150000X0.200000X-0.150000X-0.200000X0.150000X-0.200000X0*%
%ADD16RoundRect,0.250000X0.337500X0.475000X-0.337500X0.475000X-0.337500X-0.475000X0.337500X-0.475000X0*%
%ADD17RoundRect,0.225000X0.375000X-0.225000X0.375000X0.225000X-0.375000X0.225000X-0.375000X-0.225000X0*%
%ADD18RoundRect,0.250000X-0.337500X-0.475000X0.337500X-0.475000X0.337500X0.475000X-0.337500X0.475000X0*%
%ADD19R,0.500000X0.300000*%
%ADD20RoundRect,0.250000X-0.250000X-0.250000X0.250000X-0.250000X0.250000X0.250000X-0.250000X0.250000X0*%
%ADD21RoundRect,0.237500X0.250000X0.237500X-0.250000X0.237500X-0.250000X-0.237500X0.250000X-0.237500X0*%
%ADD22RoundRect,0.150000X-0.512500X-0.150000X0.512500X-0.150000X0.512500X0.150000X-0.512500X0.150000X0*%
%ADD23RoundRect,0.150000X-0.150000X-0.200000X0.150000X-0.200000X0.150000X0.200000X-0.150000X0.200000X0*%
%ADD24RoundRect,0.237500X0.237500X-0.300000X0.237500X0.300000X-0.237500X0.300000X-0.237500X-0.300000X0*%
%ADD25RoundRect,0.237500X-0.237500X0.300000X-0.237500X-0.300000X0.237500X-0.300000X0.237500X0.300000X0*%
%ADD26RoundRect,0.150000X0.200000X-0.150000X0.200000X0.150000X-0.200000X0.150000X-0.200000X-0.150000X0*%
%ADD27R,0.650000X0.750000*%
%ADD28RoundRect,0.062500X0.062500X-0.187500X0.062500X0.187500X-0.062500X0.187500X-0.062500X-0.187500X0*%
%ADD29RoundRect,0.237500X0.237500X-0.250000X0.237500X0.250000X-0.237500X0.250000X-0.237500X-0.250000X0*%
%ADD30R,1.800000X1.000000*%
%ADD31RoundRect,0.237500X0.300000X0.237500X-0.300000X0.237500X-0.300000X-0.237500X0.300000X-0.237500X0*%
%ADD32RoundRect,0.125000X0.125000X-0.175000X0.125000X0.175000X-0.125000X0.175000X-0.125000X-0.175000X0*%
%ADD33RoundRect,0.225000X-0.225000X-0.375000X0.225000X-0.375000X0.225000X0.375000X-0.225000X0.375000X0*%
%ADD34RoundRect,0.250000X0.385000X0.385000X-0.385000X0.385000X-0.385000X-0.385000X0.385000X-0.385000X0*%
%ADD35RoundRect,0.087500X0.425000X0.087500X-0.425000X0.087500X-0.425000X-0.087500X0.425000X-0.087500X0*%
%ADD36RoundRect,0.087500X0.087500X0.425000X-0.087500X0.425000X-0.087500X-0.425000X0.087500X-0.425000X0*%
%ADD37RoundRect,0.200000X-0.750000X-0.200000X0.750000X-0.200000X0.750000X0.200000X-0.750000X0.200000X0*%
%ADD38RoundRect,0.225000X0.225000X-0.225000X0.225000X0.225000X-0.225000X0.225000X-0.225000X-0.225000X0*%
%ADD39RoundRect,0.062500X0.062500X-0.337500X0.062500X0.337500X-0.062500X0.337500X-0.062500X-0.337500X0*%
%ADD40RoundRect,0.062500X0.337500X-0.062500X0.337500X0.062500X-0.337500X0.062500X-0.337500X-0.062500X0*%
%ADD41RoundRect,0.250000X0.300000X0.300000X-0.300000X0.300000X-0.300000X-0.300000X0.300000X-0.300000X0*%
%ADD42RoundRect,0.237500X-0.300000X-0.237500X0.300000X-0.237500X0.300000X0.237500X-0.300000X0.237500X0*%
%ADD43RoundRect,0.250000X0.475000X-0.337500X0.475000X0.337500X-0.475000X0.337500X-0.475000X-0.337500X0*%
%ADD44RoundRect,0.237500X-0.237500X0.250000X-0.237500X-0.250000X0.237500X-0.250000X0.237500X0.250000X0*%
%ADD45RoundRect,0.225000X0.225000X0.375000X-0.225000X0.375000X-0.225000X-0.375000X0.225000X-0.375000X0*%
%ADD46RoundRect,0.150000X-0.200000X0.150000X-0.200000X-0.150000X0.200000X-0.150000X0.200000X0.150000X0*%
%ADD47RoundRect,0.250000X-0.475000X0.337500X-0.475000X-0.337500X0.475000X-0.337500X0.475000X0.337500X0*%
%ADD48RoundRect,0.100000X0.100000X-0.650000X0.100000X0.650000X-0.100000X0.650000X-0.100000X-0.650000X0*%
%ADD49O,1.092200X2.082800*%
%ADD50RoundRect,0.040000X0.330000X0.120000X-0.330000X0.120000X-0.330000X-0.120000X0.330000X-0.120000X0*%
%ADD51RoundRect,0.150000X-0.825000X-0.150000X0.825000X-0.150000X0.825000X0.150000X-0.825000X0.150000X0*%
%ADD52R,0.900000X0.900000*%
%ADD53R,1.500000X0.900000*%
%ADD54R,0.900000X1.500000*%
G04 APERTURE END LIST*
%TO.C,MK2*%
G36*
X139653000Y-167350000D02*
G01*
X139231000Y-167350000D01*
X139231000Y-166850000D01*
X139653000Y-166850000D01*
X139653000Y-167350000D01*
G37*
G36*
X139653000Y-168650000D02*
G01*
X139231000Y-168650000D01*
X139231000Y-169150000D01*
X139653000Y-169150000D01*
X139653000Y-168650000D01*
G37*
G36*
X140475000Y-166850000D02*
G01*
X140053000Y-166850000D01*
X140053000Y-167350000D01*
X140475000Y-167350000D01*
X140475000Y-166850000D01*
G37*
G36*
X140475000Y-167750000D02*
G01*
X140053000Y-167750000D01*
X140053000Y-168250000D01*
X140475000Y-168250000D01*
X140475000Y-167750000D01*
G37*
G36*
X140475000Y-169150000D02*
G01*
X140053000Y-169150000D01*
X140053000Y-168650000D01*
X140475000Y-168650000D01*
X140475000Y-169150000D01*
G37*
D10*
G36*
X138140000Y-167439700D02*
G01*
X138030200Y-167460700D01*
X137926800Y-167502900D01*
X137833700Y-167564700D01*
X137754700Y-167643700D01*
X137692900Y-167736800D01*
X137650700Y-167840200D01*
X137629700Y-167950000D01*
X137379000Y-167950000D01*
X137406600Y-167784500D01*
X137467500Y-167628300D01*
X137559200Y-167487800D01*
X137677800Y-167369200D01*
X137818300Y-167277500D01*
X137974500Y-167216600D01*
X138140000Y-167189000D01*
X138140000Y-167439700D01*
G37*
G36*
X137650700Y-168159800D02*
G01*
X137692900Y-168263200D01*
X137754700Y-168356300D01*
X137833700Y-168435300D01*
X137926800Y-168497100D01*
X138030200Y-168539300D01*
X138140000Y-168560300D01*
X138140000Y-168811000D01*
X137974500Y-168783400D01*
X137818300Y-168722500D01*
X137677800Y-168630800D01*
X137559200Y-168512200D01*
X137467500Y-168371700D01*
X137406600Y-168215500D01*
X137379000Y-168050000D01*
X137629700Y-168050000D01*
X137650700Y-168159800D01*
G37*
G36*
X138405500Y-167216600D02*
G01*
X138561700Y-167277500D01*
X138702200Y-167369200D01*
X138820800Y-167487800D01*
X138912500Y-167628300D01*
X138973400Y-167784500D01*
X139001000Y-167950000D01*
X138750300Y-167950000D01*
X138729300Y-167840200D01*
X138687100Y-167736800D01*
X138625300Y-167643700D01*
X138546300Y-167564700D01*
X138453200Y-167502900D01*
X138349800Y-167460700D01*
X138240000Y-167439700D01*
X138240000Y-167189000D01*
X138405500Y-167216600D01*
G37*
G36*
X138973400Y-168215500D02*
G01*
X138912500Y-168371700D01*
X138820800Y-168512200D01*
X138702200Y-168630800D01*
X138561700Y-168722500D01*
X138405500Y-168783400D01*
X138240000Y-168811000D01*
X138240000Y-168560300D01*
X138349800Y-168539300D01*
X138453200Y-168497100D01*
X138546300Y-168435300D01*
X138625300Y-168356300D01*
X138687100Y-168263200D01*
X138729300Y-168159800D01*
X138750300Y-168050000D01*
X139001000Y-168050000D01*
X138973400Y-168215500D01*
G37*
D11*
%TO.C,U4*%
X200690000Y-92822500D02*
X200110000Y-92822500D01*
X200110000Y-91902500D01*
X200690000Y-91902500D01*
X200690000Y-92822500D01*
G36*
X200690000Y-92822500D02*
G01*
X200110000Y-92822500D01*
X200110000Y-91902500D01*
X200690000Y-91902500D01*
X200690000Y-92822500D01*
G37*
%TD*%
D12*
%TO.C,D12*%
X195100000Y-165650000D03*
X195100000Y-168150000D03*
%TD*%
D13*
%TO.C,R44*%
X204512500Y-135775000D03*
X206337500Y-135775000D03*
%TD*%
D14*
%TO.C,Q14*%
X144050000Y-128025000D03*
X145950000Y-128025000D03*
X145000000Y-125750000D03*
%TD*%
D15*
%TO.C,D35*%
X212900000Y-126537500D03*
X214300000Y-126537500D03*
%TD*%
D16*
%TO.C,C15*%
X206562500Y-137675000D03*
X204487500Y-137675000D03*
%TD*%
D17*
%TO.C,D7*%
X213100000Y-172050000D03*
X213100000Y-168750000D03*
%TD*%
D18*
%TO.C,C19*%
X195162500Y-92362500D03*
X197237500Y-92362500D03*
%TD*%
D19*
%TO.C,U10*%
X203700000Y-171537500D03*
X203700000Y-172337500D03*
X205100000Y-172337500D03*
X205100000Y-171537500D03*
%TD*%
D17*
%TO.C,D27*%
X208000000Y-146650000D03*
X208000000Y-143350000D03*
%TD*%
D20*
%TO.C,D8*%
X188750000Y-168000000D03*
X191250000Y-168000000D03*
%TD*%
D21*
%TO.C,R6*%
X185745400Y-160741700D03*
X183920400Y-160741700D03*
%TD*%
D22*
%TO.C,Q9*%
X182225000Y-111700000D03*
X182225000Y-113600000D03*
X184500000Y-112650000D03*
%TD*%
D21*
%TO.C,R65*%
X191437500Y-108550000D03*
X189612500Y-108550000D03*
%TD*%
%TO.C,R21*%
X171562500Y-107400000D03*
X169737500Y-107400000D03*
%TD*%
D23*
%TO.C,D26*%
X149700000Y-171400000D03*
X148300000Y-171400000D03*
%TD*%
D24*
%TO.C,C24*%
X141800000Y-169062500D03*
X141800000Y-167337500D03*
%TD*%
D13*
%TO.C,R24*%
X177937500Y-98800000D03*
X179762500Y-98800000D03*
%TD*%
D25*
%TO.C,C9*%
X191440000Y-119937500D03*
X191440000Y-121662500D03*
%TD*%
D13*
%TO.C,R4*%
X198975000Y-157000000D03*
X200800000Y-157000000D03*
%TD*%
D21*
%TO.C,R69*%
X180362500Y-108500000D03*
X178537500Y-108500000D03*
%TD*%
D26*
%TO.C,D31*%
X214020000Y-98660000D03*
X214020000Y-100060000D03*
%TD*%
D27*
%TO.C,U5*%
X165337500Y-76700000D03*
X166137500Y-76700000D03*
D28*
X164987500Y-77650000D03*
X165487500Y-77650000D03*
X165987500Y-77650000D03*
X166487500Y-77650000D03*
X166487500Y-75750000D03*
X165987500Y-75750000D03*
X165487500Y-75750000D03*
X164987500Y-75750000D03*
%TD*%
D21*
%TO.C,R27*%
X192137500Y-100050000D03*
X190312500Y-100050000D03*
%TD*%
D24*
%TO.C,C14*%
X201150000Y-134132500D03*
X201150000Y-132407500D03*
%TD*%
D29*
%TO.C,R39*%
X143900000Y-161843700D03*
X143900000Y-160018700D03*
%TD*%
D21*
%TO.C,R53*%
X215012500Y-162400000D03*
X213187500Y-162400000D03*
%TD*%
D30*
%TO.C,Y1*%
X202162500Y-163950000D03*
X202162500Y-166450000D03*
%TD*%
D29*
%TO.C,R7*%
X208425000Y-137987500D03*
X208425000Y-136162500D03*
%TD*%
%TO.C,R51*%
X144000000Y-131800000D03*
X144000000Y-129975000D03*
%TD*%
D13*
%TO.C,R15*%
X161637500Y-105900000D03*
X163462500Y-105900000D03*
%TD*%
D26*
%TO.C,D30*%
X214020000Y-89560000D03*
X214020000Y-90960000D03*
%TD*%
D23*
%TO.C,D19*%
X189540000Y-138680000D03*
X188140000Y-138680000D03*
%TD*%
D22*
%TO.C,Q7*%
X194000000Y-98600000D03*
X194000000Y-100500000D03*
X196275000Y-99550000D03*
%TD*%
D23*
%TO.C,D17*%
X189240000Y-118400000D03*
X187840000Y-118400000D03*
%TD*%
D13*
%TO.C,R10*%
X188027500Y-121500000D03*
X189852500Y-121500000D03*
%TD*%
D31*
%TO.C,C22*%
X205762500Y-152500000D03*
X204037500Y-152500000D03*
%TD*%
D21*
%TO.C,R52*%
X215012500Y-156200000D03*
X213187500Y-156200000D03*
%TD*%
D22*
%TO.C,Q8*%
X172000000Y-98900000D03*
X172000000Y-100800000D03*
X174275000Y-99850000D03*
%TD*%
%TO.C,Q10*%
X193300000Y-105600000D03*
X193300000Y-107500000D03*
X195575000Y-106550000D03*
%TD*%
D32*
%TO.C,Q11*%
X149600000Y-158581200D03*
X150600000Y-158581200D03*
X150100000Y-157281200D03*
%TD*%
D15*
%TO.C,D36*%
X213000000Y-133700000D03*
X214400000Y-133700000D03*
%TD*%
D33*
%TO.C,D37*%
X193200000Y-148250000D03*
X196500000Y-148250000D03*
%TD*%
D21*
%TO.C,R49*%
X140712500Y-125200000D03*
X138887500Y-125200000D03*
%TD*%
D34*
%TO.C,U13*%
X206527500Y-157490000D03*
X206527500Y-155910000D03*
X204947500Y-157490000D03*
X204947500Y-155910000D03*
D35*
X208100000Y-158000000D03*
X208100000Y-157350000D03*
X208100000Y-156700000D03*
X208100000Y-156050000D03*
X208100000Y-155400000D03*
D36*
X207037500Y-154337500D03*
X206387500Y-154337500D03*
X205737500Y-154337500D03*
X205087500Y-154337500D03*
X204437500Y-154337500D03*
D35*
X203375000Y-155400000D03*
X203375000Y-156050000D03*
X203375000Y-156700000D03*
X203375000Y-157350000D03*
X203375000Y-158000000D03*
D36*
X204437500Y-159062500D03*
X205087500Y-159062500D03*
X205737500Y-159062500D03*
X206387500Y-159062500D03*
X207037500Y-159062500D03*
%TD*%
D37*
%TO.C,Q17*%
X182332900Y-164291700D03*
X182332900Y-166191700D03*
X185332900Y-165241700D03*
%TD*%
D25*
%TO.C,C21*%
X211800000Y-164637500D03*
X211800000Y-166362500D03*
%TD*%
D38*
%TO.C,U2*%
X191100000Y-159220000D03*
X192220000Y-159220000D03*
X193340000Y-159220000D03*
X191100000Y-158100000D03*
X192220000Y-158100000D03*
X193340000Y-158100000D03*
X191100000Y-156980000D03*
X192220000Y-156980000D03*
X193340000Y-156980000D03*
D39*
X190720000Y-160550000D03*
X191220000Y-160550000D03*
X191720000Y-160550000D03*
X192220000Y-160550000D03*
X192720000Y-160550000D03*
X193220000Y-160550000D03*
X193720000Y-160550000D03*
D40*
X194670000Y-159600000D03*
X194670000Y-159100000D03*
X194670000Y-158600000D03*
X194670000Y-158100000D03*
X194670000Y-157600000D03*
X194670000Y-157100000D03*
X194670000Y-156600000D03*
D39*
X193720000Y-155650000D03*
X193220000Y-155650000D03*
X192720000Y-155650000D03*
X192220000Y-155650000D03*
X191720000Y-155650000D03*
X191220000Y-155650000D03*
X190720000Y-155650000D03*
D40*
X189770000Y-156600000D03*
X189770000Y-157100000D03*
X189770000Y-157600000D03*
X189770000Y-158100000D03*
X189770000Y-158600000D03*
X189770000Y-159100000D03*
X189770000Y-159600000D03*
%TD*%
D15*
%TO.C,D13*%
X213800000Y-157900000D03*
X215200000Y-157900000D03*
%TD*%
D41*
%TO.C,D3*%
X144400000Y-115600000D03*
X141600000Y-115600000D03*
%TD*%
D21*
%TO.C,R33*%
X191437500Y-107050000D03*
X189612500Y-107050000D03*
%TD*%
D29*
%TO.C,R40*%
X142400000Y-161843700D03*
X142400000Y-160018700D03*
%TD*%
%TO.C,R35*%
X151100000Y-161843700D03*
X151100000Y-160018700D03*
%TD*%
D13*
%TO.C,R11*%
X188427500Y-131300000D03*
X190252500Y-131300000D03*
%TD*%
%TO.C,R13*%
X188357500Y-141780000D03*
X190182500Y-141780000D03*
%TD*%
D29*
%TO.C,R37*%
X147500000Y-161843700D03*
X147500000Y-160018700D03*
%TD*%
%TO.C,R8*%
X204000000Y-150012500D03*
X204000000Y-148187500D03*
%TD*%
D42*
%TO.C,C4*%
X206587500Y-112869800D03*
X208312500Y-112869800D03*
%TD*%
D43*
%TO.C,C12*%
X205700000Y-146537500D03*
X205700000Y-144462500D03*
%TD*%
D42*
%TO.C,C16*%
X177575000Y-170900000D03*
X179300000Y-170900000D03*
%TD*%
D33*
%TO.C,D9*%
X188050000Y-165800000D03*
X191350000Y-165800000D03*
%TD*%
D32*
%TO.C,Q15*%
X138800000Y-158581200D03*
X139800000Y-158581200D03*
X139300000Y-157281200D03*
%TD*%
D21*
%TO.C,R57*%
X141312500Y-165500000D03*
X139487500Y-165500000D03*
%TD*%
D13*
%TO.C,R26*%
X178537500Y-105500000D03*
X180362500Y-105500000D03*
%TD*%
D23*
%TO.C,D23*%
X149700000Y-166000000D03*
X148300000Y-166000000D03*
%TD*%
D26*
%TO.C,D33*%
X214020000Y-70960000D03*
X214020000Y-72360000D03*
%TD*%
D42*
%TO.C,C5*%
X206587500Y-124269800D03*
X208312500Y-124269800D03*
%TD*%
D21*
%TO.C,R45*%
X206337500Y-139575000D03*
X204512500Y-139575000D03*
%TD*%
D22*
%TO.C,Q5*%
X181625000Y-98850000D03*
X181625000Y-100750000D03*
X183900000Y-99800000D03*
%TD*%
D21*
%TO.C,R3*%
X200812500Y-158600000D03*
X198987500Y-158600000D03*
%TD*%
D44*
%TO.C,R50*%
X146000000Y-129975000D03*
X146000000Y-131800000D03*
%TD*%
D13*
%TO.C,R22*%
X169737500Y-105900000D03*
X171562500Y-105900000D03*
%TD*%
D45*
%TO.C,D20*%
X193350000Y-92362500D03*
X190050000Y-92362500D03*
%TD*%
D46*
%TO.C,D6*%
X215300000Y-170300000D03*
X215300000Y-168900000D03*
%TD*%
D29*
%TO.C,R38*%
X146000000Y-161843700D03*
X146000000Y-160018700D03*
%TD*%
D13*
%TO.C,R41*%
X181287500Y-153200000D03*
X183112500Y-153200000D03*
%TD*%
D23*
%TO.C,D29*%
X207750000Y-122669800D03*
X206350000Y-122669800D03*
%TD*%
D13*
%TO.C,R9*%
X188027500Y-119900000D03*
X189852500Y-119900000D03*
%TD*%
D18*
%TO.C,C2*%
X180262500Y-176400000D03*
X182337500Y-176400000D03*
%TD*%
D13*
%TO.C,R32*%
X178537500Y-111700000D03*
X180362500Y-111700000D03*
%TD*%
D21*
%TO.C,R2*%
X200812500Y-153400000D03*
X198987500Y-153400000D03*
%TD*%
D41*
%TO.C,D5*%
X208500000Y-150300000D03*
X205700000Y-150300000D03*
%TD*%
D42*
%TO.C,C3*%
X177587500Y-172410000D03*
X179312500Y-172410000D03*
%TD*%
D47*
%TO.C,C17*%
X203600000Y-91325000D03*
X203600000Y-93400000D03*
%TD*%
D13*
%TO.C,R30*%
X168312500Y-98850000D03*
X170137500Y-98850000D03*
%TD*%
D46*
%TO.C,D16*%
X202500000Y-149500000D03*
X202500000Y-148100000D03*
%TD*%
D44*
%TO.C,R55*%
X143100000Y-145187500D03*
X143100000Y-147012500D03*
%TD*%
D23*
%TO.C,D28*%
X207750000Y-111269800D03*
X206350000Y-111269800D03*
%TD*%
D21*
%TO.C,R23*%
X179762500Y-100300000D03*
X177937500Y-100300000D03*
%TD*%
D48*
%TO.C,U3*%
X201200000Y-138900000D03*
X201850000Y-138900000D03*
X202500000Y-138900000D03*
X202500000Y-136240000D03*
X201200000Y-136240000D03*
%TD*%
D21*
%TO.C,R1*%
X187512500Y-155500000D03*
X185687500Y-155500000D03*
%TD*%
D15*
%TO.C,D34*%
X213000000Y-123937500D03*
X214400000Y-123937500D03*
%TD*%
D44*
%TO.C,R54*%
X143400000Y-138187500D03*
X143400000Y-140012500D03*
%TD*%
D21*
%TO.C,R62*%
X192137500Y-101550000D03*
X190312500Y-101550000D03*
%TD*%
%TO.C,R31*%
X180362500Y-113200000D03*
X178537500Y-113200000D03*
%TD*%
%TO.C,R43*%
X207512500Y-148300000D03*
X205687500Y-148300000D03*
%TD*%
D25*
%TO.C,C8*%
X207100000Y-174375000D03*
X207100000Y-176100000D03*
%TD*%
D12*
%TO.C,D11*%
X193100000Y-165650000D03*
X193100000Y-168150000D03*
%TD*%
D18*
%TO.C,C7*%
X199062500Y-155200000D03*
X201137500Y-155200000D03*
%TD*%
D13*
%TO.C,R14*%
X188327500Y-140180000D03*
X190152500Y-140180000D03*
%TD*%
D21*
%TO.C,R25*%
X180362500Y-107000000D03*
X178537500Y-107000000D03*
%TD*%
D49*
%TO.C,J2*%
X187667099Y-171758300D03*
X187667099Y-174758299D03*
X196867101Y-171758300D03*
X196867101Y-174758299D03*
%TD*%
D22*
%TO.C,Q4*%
X173425000Y-105950000D03*
X173425000Y-107850000D03*
X175700000Y-106900000D03*
%TD*%
D50*
%TO.C,U4*%
X201385000Y-92862500D03*
X201385000Y-92362500D03*
X201385000Y-91862500D03*
X199415000Y-91862500D03*
X199415000Y-92362500D03*
X199415000Y-92862500D03*
%TD*%
D13*
%TO.C,R19*%
X208787500Y-160600000D03*
X210612500Y-160600000D03*
%TD*%
D21*
%TO.C,R68*%
X179762500Y-101800000D03*
X177937500Y-101800000D03*
%TD*%
D23*
%TO.C,D24*%
X149700000Y-167800000D03*
X148300000Y-167800000D03*
%TD*%
D42*
%TO.C,C18*%
X164975000Y-74200000D03*
X166700000Y-74200000D03*
%TD*%
D22*
%TO.C,Q6*%
X182225000Y-105550000D03*
X182225000Y-107450000D03*
X184500000Y-106500000D03*
%TD*%
D51*
%TO.C,U12*%
X199825000Y-174232500D03*
X199825000Y-175502500D03*
X199825000Y-176772500D03*
X199825000Y-178042500D03*
X204775000Y-178042500D03*
X204775000Y-176772500D03*
X204775000Y-175502500D03*
X204775000Y-174232500D03*
%TD*%
D25*
%TO.C,C11*%
X191770000Y-140217500D03*
X191770000Y-141942500D03*
%TD*%
D26*
%TO.C,D32*%
X214020000Y-107760000D03*
X214020000Y-109160000D03*
%TD*%
D25*
%TO.C,C10*%
X191840000Y-129817500D03*
X191840000Y-131542500D03*
%TD*%
D21*
%TO.C,R59*%
X153925000Y-166400000D03*
X152100000Y-166400000D03*
%TD*%
D29*
%TO.C,R47*%
X138800000Y-161843700D03*
X138800000Y-160018700D03*
%TD*%
D32*
%TO.C,Q13*%
X142400000Y-158581200D03*
X143400000Y-158581200D03*
X142900000Y-157281200D03*
%TD*%
D21*
%TO.C,R5*%
X185745400Y-162641700D03*
X183920400Y-162641700D03*
%TD*%
%TO.C,R20*%
X210612500Y-162100000D03*
X208787500Y-162100000D03*
%TD*%
D51*
%TO.C,U11*%
X204662500Y-164560000D03*
X204662500Y-165830000D03*
X204662500Y-167100000D03*
X204662500Y-168370000D03*
X209612500Y-168370000D03*
X209612500Y-167100000D03*
X209612500Y-165830000D03*
X209612500Y-164560000D03*
%TD*%
D15*
%TO.C,D10*%
X212900000Y-116337500D03*
X214300000Y-116337500D03*
%TD*%
D42*
%TO.C,C1*%
X180237500Y-178200000D03*
X181962500Y-178200000D03*
%TD*%
D21*
%TO.C,R63*%
X170137500Y-101850000D03*
X168312500Y-101850000D03*
%TD*%
D13*
%TO.C,R42*%
X181287500Y-151600000D03*
X183112500Y-151600000D03*
%TD*%
%TO.C,R58*%
X139487500Y-164000000D03*
X141312500Y-164000000D03*
%TD*%
%TO.C,R34*%
X189612500Y-105550000D03*
X191437500Y-105550000D03*
%TD*%
D21*
%TO.C,R56*%
X215012500Y-159400000D03*
X213187500Y-159400000D03*
%TD*%
D37*
%TO.C,Q16*%
X182332900Y-157191700D03*
X182332900Y-159091700D03*
X185332900Y-158141700D03*
%TD*%
D21*
%TO.C,R64*%
X180362500Y-114700000D03*
X178537500Y-114700000D03*
%TD*%
%TO.C,R67*%
X171562500Y-108900000D03*
X169737500Y-108900000D03*
%TD*%
D24*
%TO.C,C20*%
X207100000Y-172700000D03*
X207100000Y-170975000D03*
%TD*%
D13*
%TO.C,R12*%
X188427500Y-129700000D03*
X190252500Y-129700000D03*
%TD*%
D18*
%TO.C,C6*%
X195462500Y-162600000D03*
X197537500Y-162600000D03*
%TD*%
D21*
%TO.C,R16*%
X163462500Y-107400000D03*
X161637500Y-107400000D03*
%TD*%
D29*
%TO.C,R36*%
X149600000Y-161843700D03*
X149600000Y-160018700D03*
%TD*%
D21*
%TO.C,R66*%
X163462500Y-108900000D03*
X161637500Y-108900000D03*
%TD*%
D26*
%TO.C,D22*%
X214020000Y-80560000D03*
X214020000Y-81960000D03*
%TD*%
D52*
%TO.C,U1*%
X168100000Y-172800000D03*
X168100000Y-171400000D03*
X168100000Y-170000000D03*
X166700000Y-172800000D03*
X166700000Y-171400000D03*
X166700000Y-170000000D03*
X165300000Y-172800000D03*
X165300000Y-171400000D03*
X165300000Y-170000000D03*
D53*
X173950000Y-179120000D03*
X173950000Y-177850000D03*
X173950000Y-176580000D03*
X173950000Y-175310000D03*
X173950000Y-174040000D03*
X173950000Y-172770000D03*
X173950000Y-171500000D03*
X173950000Y-170230000D03*
X173950000Y-168960000D03*
X173950000Y-167690000D03*
X173950000Y-166420000D03*
X173950000Y-165150000D03*
X173950000Y-163880000D03*
X173950000Y-162610000D03*
D54*
X172185000Y-161360000D03*
X170915000Y-161360000D03*
X169645000Y-161360000D03*
X168375000Y-161360000D03*
X167105000Y-161360000D03*
X165835000Y-161360000D03*
X164565000Y-161360000D03*
X163295000Y-161360000D03*
X162025000Y-161360000D03*
X160755000Y-161360000D03*
X159485000Y-161360000D03*
X158215000Y-161360000D03*
D53*
X156450000Y-162610000D03*
X156450000Y-163880000D03*
X156450000Y-165150000D03*
X156450000Y-166420000D03*
X156450000Y-167690000D03*
X156450000Y-168960000D03*
X156450000Y-170230000D03*
X156450000Y-171500000D03*
X156450000Y-172770000D03*
X156450000Y-174040000D03*
X156450000Y-175310000D03*
X156450000Y-176580000D03*
X156450000Y-177850000D03*
X156450000Y-179120000D03*
%TD*%
D29*
%TO.C,R48*%
X212420000Y-108972500D03*
X212420000Y-107147500D03*
%TD*%
D21*
%TO.C,R29*%
X170137500Y-100350000D03*
X168312500Y-100350000D03*
%TD*%
D22*
%TO.C,Q3*%
X165325000Y-105950000D03*
X165325000Y-107850000D03*
X167600000Y-106900000D03*
%TD*%
D29*
%TO.C,R18*%
X201300000Y-169912500D03*
X201300000Y-168087500D03*
%TD*%
%TO.C,R17*%
X199800000Y-169912500D03*
X199800000Y-168087500D03*
%TD*%
D32*
%TO.C,Q12*%
X146000000Y-158581200D03*
X147000000Y-158581200D03*
X146500000Y-157281200D03*
%TD*%
D13*
%TO.C,R28*%
X190312500Y-98550000D03*
X192137500Y-98550000D03*
%TD*%
D15*
%TO.C,D1*%
X213800000Y-160900000D03*
X215200000Y-160900000D03*
%TD*%
D21*
%TO.C,R60*%
X154412500Y-163900000D03*
X152587500Y-163900000D03*
%TD*%
D29*
%TO.C,R46*%
X140300000Y-161843700D03*
X140300000Y-160018700D03*
%TD*%
D24*
%TO.C,C23*%
X209700000Y-157462500D03*
X209700000Y-155737500D03*
%TD*%
D23*
%TO.C,D18*%
X189640000Y-128100000D03*
X188240000Y-128100000D03*
%TD*%
D33*
%TO.C,D38*%
X193200000Y-151600000D03*
X196500000Y-151600000D03*
%TD*%
D23*
%TO.C,D25*%
X149700000Y-169600000D03*
X148300000Y-169600000D03*
%TD*%
D24*
%TO.C,C13*%
X203900000Y-146462500D03*
X203900000Y-144737500D03*
%TD*%
M02*
