%TF.GenerationSoftware,KiCad,Pcbnew,9.0.2*%
%TF.CreationDate,2025-06-06T06:26:29-05:00*%
%TF.ProjectId,HVAC_ESP32_Node,48564143-5f45-4535-9033-325f4e6f6465,rev?*%
%TF.SameCoordinates,Original*%
%TF.FileFunction,Legend,Bot*%
%TF.FilePolarity,Positive*%
%FSLAX46Y46*%
G04 Gerber Fmt 4.6, Leading zero omitted, Abs format (unit mm)*
G04 Created by KiCad (PCBNEW 9.0.2) date 2025-06-06 06:26:29*
%MOMM*%
%LPD*%
G01*
G04 APERTURE LIST*
G04 Aperture macros list*
%AMRoundRect*
0 Rectangle with rounded corners*
0 $1 Rounding radius*
0 $2 $3 $4 $5 $6 $7 $8 $9 X,Y pos of 4 corners*
0 Add a 4 corners polygon primitive as box body*
4,1,4,$2,$3,$4,$5,$6,$7,$8,$9,$2,$3,0*
0 Add four circle primitives for the rounded corners*
1,1,$1+$1,$2,$3*
1,1,$1+$1,$4,$5*
1,1,$1+$1,$6,$7*
1,1,$1+$1,$8,$9*
0 Add four rect primitives between the rounded corners*
20,1,$1+$1,$2,$3,$4,$5,0*
20,1,$1+$1,$4,$5,$6,$7,0*
20,1,$1+$1,$6,$7,$8,$9,0*
20,1,$1+$1,$8,$9,$2,$3,0*%
G04 Aperture macros list end*
%ADD10C,0.150000*%
%ADD11C,0.508000*%
%ADD12C,0.152400*%
%ADD13C,0.100000*%
%ADD14R,1.800000X1.800000*%
%ADD15C,1.800000*%
%ADD16R,1.524000X2.524000*%
%ADD17O,1.524000X2.524000*%
%ADD18C,1.498092*%
%ADD19C,1.498600*%
%ADD20RoundRect,0.250000X0.845000X-0.620000X0.845000X0.620000X-0.845000X0.620000X-0.845000X-0.620000X0*%
%ADD21O,2.190000X1.740000*%
%ADD22C,1.600000*%
%ADD23C,0.500000*%
%ADD24C,3.200000*%
%ADD25C,3.204000*%
%ADD26RoundRect,0.550000X-0.550000X0.550000X-0.550000X-0.550000X0.550000X-0.550000X0.550000X0.550000X0*%
%ADD27C,2.200000*%
%ADD28C,2.204000*%
%ADD29C,6.400000*%
%ADD30C,0.685800*%
%ADD31C,5.000000*%
%ADD32C,4.500000*%
%ADD33C,3.500000*%
%ADD34RoundRect,0.102000X-0.704000X0.704000X-0.704000X-0.704000X0.704000X-0.704000X0.704000X0.704000X0*%
%ADD35C,1.612000*%
%ADD36R,2.200000X2.200000*%
%ADD37C,1.200000*%
%ADD38O,2.200000X1.200000*%
%ADD39O,1.200000X2.200000*%
%ADD40R,1.000000X1.000000*%
%ADD41C,1.000000*%
%ADD42R,3.810000X4.495800*%
G04 APERTURE END LIST*
D10*
X183428571Y-92786128D02*
X183428571Y-93857557D01*
X183428571Y-93857557D02*
X183500000Y-94071842D01*
X183500000Y-94071842D02*
X183642857Y-94214700D01*
X183642857Y-94214700D02*
X183857143Y-94286128D01*
X183857143Y-94286128D02*
X184000000Y-94286128D01*
X182000000Y-94286128D02*
X182714286Y-94286128D01*
X182714286Y-94286128D02*
X182714286Y-92786128D01*
X180642857Y-94143271D02*
X180714285Y-94214700D01*
X180714285Y-94214700D02*
X180928571Y-94286128D01*
X180928571Y-94286128D02*
X181071428Y-94286128D01*
X181071428Y-94286128D02*
X181285714Y-94214700D01*
X181285714Y-94214700D02*
X181428571Y-94071842D01*
X181428571Y-94071842D02*
X181500000Y-93928985D01*
X181500000Y-93928985D02*
X181571428Y-93643271D01*
X181571428Y-93643271D02*
X181571428Y-93428985D01*
X181571428Y-93428985D02*
X181500000Y-93143271D01*
X181500000Y-93143271D02*
X181428571Y-93000414D01*
X181428571Y-93000414D02*
X181285714Y-92857557D01*
X181285714Y-92857557D02*
X181071428Y-92786128D01*
X181071428Y-92786128D02*
X180928571Y-92786128D01*
X180928571Y-92786128D02*
X180714285Y-92857557D01*
X180714285Y-92857557D02*
X180642857Y-92928985D01*
X179571428Y-92786128D02*
X179571428Y-93857557D01*
X179571428Y-93857557D02*
X179642857Y-94071842D01*
X179642857Y-94071842D02*
X179785714Y-94214700D01*
X179785714Y-94214700D02*
X180000000Y-94286128D01*
X180000000Y-94286128D02*
X180142857Y-94286128D01*
X178142857Y-94286128D02*
X178857143Y-94286128D01*
X178857143Y-94286128D02*
X178857143Y-92786128D01*
X176785714Y-94143271D02*
X176857142Y-94214700D01*
X176857142Y-94214700D02*
X177071428Y-94286128D01*
X177071428Y-94286128D02*
X177214285Y-94286128D01*
X177214285Y-94286128D02*
X177428571Y-94214700D01*
X177428571Y-94214700D02*
X177571428Y-94071842D01*
X177571428Y-94071842D02*
X177642857Y-93928985D01*
X177642857Y-93928985D02*
X177714285Y-93643271D01*
X177714285Y-93643271D02*
X177714285Y-93428985D01*
X177714285Y-93428985D02*
X177642857Y-93143271D01*
X177642857Y-93143271D02*
X177571428Y-93000414D01*
X177571428Y-93000414D02*
X177428571Y-92857557D01*
X177428571Y-92857557D02*
X177214285Y-92786128D01*
X177214285Y-92786128D02*
X177071428Y-92786128D01*
X177071428Y-92786128D02*
X176857142Y-92857557D01*
X176857142Y-92857557D02*
X176785714Y-92928985D01*
X175714285Y-92786128D02*
X175714285Y-93857557D01*
X175714285Y-93857557D02*
X175785714Y-94071842D01*
X175785714Y-94071842D02*
X175928571Y-94214700D01*
X175928571Y-94214700D02*
X176142857Y-94286128D01*
X176142857Y-94286128D02*
X176285714Y-94286128D01*
X174285714Y-94286128D02*
X175000000Y-94286128D01*
X175000000Y-94286128D02*
X175000000Y-92786128D01*
X172928571Y-94143271D02*
X172999999Y-94214700D01*
X172999999Y-94214700D02*
X173214285Y-94286128D01*
X173214285Y-94286128D02*
X173357142Y-94286128D01*
X173357142Y-94286128D02*
X173571428Y-94214700D01*
X173571428Y-94214700D02*
X173714285Y-94071842D01*
X173714285Y-94071842D02*
X173785714Y-93928985D01*
X173785714Y-93928985D02*
X173857142Y-93643271D01*
X173857142Y-93643271D02*
X173857142Y-93428985D01*
X173857142Y-93428985D02*
X173785714Y-93143271D01*
X173785714Y-93143271D02*
X173714285Y-93000414D01*
X173714285Y-93000414D02*
X173571428Y-92857557D01*
X173571428Y-92857557D02*
X173357142Y-92786128D01*
X173357142Y-92786128D02*
X173214285Y-92786128D01*
X173214285Y-92786128D02*
X172999999Y-92857557D01*
X172999999Y-92857557D02*
X172928571Y-92928985D01*
X171857142Y-92786128D02*
X171857142Y-93857557D01*
X171857142Y-93857557D02*
X171928571Y-94071842D01*
X171928571Y-94071842D02*
X172071428Y-94214700D01*
X172071428Y-94214700D02*
X172285714Y-94286128D01*
X172285714Y-94286128D02*
X172428571Y-94286128D01*
X170428571Y-94286128D02*
X171142857Y-94286128D01*
X171142857Y-94286128D02*
X171142857Y-92786128D01*
X169071428Y-94143271D02*
X169142856Y-94214700D01*
X169142856Y-94214700D02*
X169357142Y-94286128D01*
X169357142Y-94286128D02*
X169499999Y-94286128D01*
X169499999Y-94286128D02*
X169714285Y-94214700D01*
X169714285Y-94214700D02*
X169857142Y-94071842D01*
X169857142Y-94071842D02*
X169928571Y-93928985D01*
X169928571Y-93928985D02*
X169999999Y-93643271D01*
X169999999Y-93643271D02*
X169999999Y-93428985D01*
X169999999Y-93428985D02*
X169928571Y-93143271D01*
X169928571Y-93143271D02*
X169857142Y-93000414D01*
X169857142Y-93000414D02*
X169714285Y-92857557D01*
X169714285Y-92857557D02*
X169499999Y-92786128D01*
X169499999Y-92786128D02*
X169357142Y-92786128D01*
X169357142Y-92786128D02*
X169142856Y-92857557D01*
X169142856Y-92857557D02*
X169071428Y-92928985D01*
X192362490Y-148068990D02*
X192505347Y-148021371D01*
X192505347Y-148021371D02*
X192552966Y-147973752D01*
X192552966Y-147973752D02*
X192600585Y-147878514D01*
X192600585Y-147878514D02*
X192600585Y-147735657D01*
X192600585Y-147735657D02*
X192552966Y-147640419D01*
X192552966Y-147640419D02*
X192505347Y-147592800D01*
X192505347Y-147592800D02*
X192410109Y-147545180D01*
X192410109Y-147545180D02*
X192029157Y-147545180D01*
X192029157Y-147545180D02*
X192029157Y-148545180D01*
X192029157Y-148545180D02*
X192362490Y-148545180D01*
X192362490Y-148545180D02*
X192457728Y-148497561D01*
X192457728Y-148497561D02*
X192505347Y-148449942D01*
X192505347Y-148449942D02*
X192552966Y-148354704D01*
X192552966Y-148354704D02*
X192552966Y-148259466D01*
X192552966Y-148259466D02*
X192505347Y-148164228D01*
X192505347Y-148164228D02*
X192457728Y-148116609D01*
X192457728Y-148116609D02*
X192362490Y-148068990D01*
X192362490Y-148068990D02*
X192029157Y-148068990D01*
X192886300Y-148545180D02*
X193457728Y-148545180D01*
X193172014Y-147545180D02*
X193172014Y-148545180D01*
X194314871Y-147545180D02*
X193743443Y-147545180D01*
X194029157Y-147545180D02*
X194029157Y-148545180D01*
X194029157Y-148545180D02*
X193933919Y-148402323D01*
X193933919Y-148402323D02*
X193838681Y-148307085D01*
X193838681Y-148307085D02*
X193743443Y-148259466D01*
X182648205Y-158545180D02*
X182648205Y-158307085D01*
X182410110Y-158402323D02*
X182648205Y-158307085D01*
X182648205Y-158307085D02*
X182886300Y-158402323D01*
X182505348Y-158116609D02*
X182648205Y-158307085D01*
X182648205Y-158307085D02*
X182791062Y-158116609D01*
X182648204Y-158454819D02*
X182648204Y-158692914D01*
X182886299Y-158597676D02*
X182648204Y-158692914D01*
X182648204Y-158692914D02*
X182410109Y-158597676D01*
X182791061Y-158883390D02*
X182648204Y-158692914D01*
X182648204Y-158692914D02*
X182505347Y-158883390D01*
D11*
%TO.C,SW6*%
X204581001Y-117688001D02*
G75*
G02*
X203819001Y-117688001I-381000J0D01*
G01*
X203819001Y-117688001D02*
G75*
G02*
X204581001Y-117688001I381000J0D01*
G01*
%TO.C,SW5*%
X186031001Y-145118201D02*
G75*
G02*
X185269001Y-145118201I-381000J0D01*
G01*
X185269001Y-145118201D02*
G75*
G02*
X186031001Y-145118201I381000J0D01*
G01*
%TO.C,SW3*%
X186181001Y-124788001D02*
G75*
G02*
X185419001Y-124788001I-381000J0D01*
G01*
X185419001Y-124788001D02*
G75*
G02*
X186181001Y-124788001I381000J0D01*
G01*
%TO.C,SW7*%
X204581001Y-129088001D02*
G75*
G02*
X203819001Y-129088001I-381000J0D01*
G01*
X203819001Y-129088001D02*
G75*
G02*
X204581001Y-129088001I381000J0D01*
G01*
%TO.C,J2*%
X186272700Y-170608300D02*
G75*
G02*
X185510700Y-170608300I-381000J0D01*
G01*
X185510700Y-170608300D02*
G75*
G02*
X186272700Y-170608300I381000J0D01*
G01*
%TO.C,SW4*%
X186131001Y-134518201D02*
G75*
G02*
X185369001Y-134518201I-381000J0D01*
G01*
X185369001Y-134518201D02*
G75*
G02*
X186131001Y-134518201I381000J0D01*
G01*
D12*
%TO.C,BT1*%
X178771805Y-139872000D02*
X207524605Y-139872000D01*
X178771805Y-145419360D02*
X178771805Y-139872000D01*
X178771805Y-156128000D02*
X178771805Y-150580640D01*
X207524605Y-139872000D02*
X207524605Y-145419360D01*
X207524605Y-150580640D02*
X207524605Y-156128000D01*
X207524605Y-156128000D02*
X178771805Y-156128000D01*
D13*
X203148205Y-148000000D02*
G75*
G02*
X183148205Y-148000000I-10000000J0D01*
G01*
X183148205Y-148000000D02*
G75*
G02*
X203148205Y-148000000I10000000J0D01*
G01*
%TD*%
%LPC*%
D14*
%TO.C,D2*%
X138000000Y-129387500D03*
D15*
X140540000Y-129387500D03*
%TD*%
D16*
%TO.C,U6*%
X150120000Y-132720000D03*
D17*
X152660000Y-132720000D03*
X155200000Y-132720000D03*
X157740000Y-132720000D03*
X160280000Y-132720000D03*
X160280000Y-117480000D03*
X157740000Y-117480000D03*
X155200000Y-117480000D03*
X152660000Y-117480000D03*
X150120000Y-117480000D03*
%TD*%
D18*
%TO.C,SW6*%
X204200001Y-115800001D03*
X197700000Y-115800001D03*
X204200001Y-111300000D03*
X197700000Y-111300000D03*
D19*
X200950000Y-117639401D03*
%TD*%
D20*
%TO.C,J8*%
X218520000Y-94040000D03*
D21*
X218520000Y-91500000D03*
X218520000Y-88960000D03*
%TD*%
D22*
%TO.C,RV2*%
X170000000Y-86000000D03*
X175000000Y-88800000D03*
%TD*%
D20*
%TO.C,J9*%
X218620000Y-75640000D03*
D21*
X218620000Y-73100000D03*
X218620000Y-70560000D03*
%TD*%
D18*
%TO.C,SW5*%
X185650001Y-143230201D03*
X179150000Y-143230201D03*
X185650001Y-138730200D03*
X179150000Y-138730200D03*
D19*
X182400000Y-145069601D03*
%TD*%
D20*
%TO.C,J13*%
X218600000Y-126477500D03*
D21*
X218600000Y-123937500D03*
X218600000Y-121397500D03*
X218600000Y-118857500D03*
X218600000Y-116317500D03*
%TD*%
D16*
%TO.C,U8*%
X149920000Y-153520000D03*
D17*
X152460000Y-153520000D03*
X155000000Y-153520000D03*
X157540000Y-153520000D03*
X160080000Y-153520000D03*
X160080000Y-138280000D03*
X157540000Y-138280000D03*
X155000000Y-138280000D03*
X152460000Y-138280000D03*
X149920000Y-138280000D03*
%TD*%
D18*
%TO.C,SW3*%
X185800001Y-122900001D03*
X179300000Y-122900001D03*
X185800001Y-118400000D03*
X179300000Y-118400000D03*
D19*
X182550000Y-124739401D03*
%TD*%
D14*
%TO.C,D21*%
X137860000Y-147000000D03*
D15*
X140400000Y-147000000D03*
%TD*%
D23*
%TO.C,MK2*%
X138190000Y-168000000D03*
%TD*%
D20*
%TO.C,J11*%
X218520000Y-112300000D03*
D21*
X218520000Y-109760000D03*
X218520000Y-107220000D03*
%TD*%
D20*
%TO.C,J1*%
X219500000Y-168840000D03*
D21*
X219500000Y-166300000D03*
%TD*%
D24*
%TO.C,H1*%
X139000000Y-64000000D03*
%TD*%
D25*
%TO.C,PS1*%
X190700000Y-85000000D03*
X200700000Y-85000000D03*
X205700000Y-65000000D03*
X185700000Y-65000000D03*
%TD*%
D26*
%TO.C,F1*%
X175000000Y-63100000D03*
X170000000Y-63100000D03*
D27*
X175000000Y-81900000D03*
X170000000Y-81900000D03*
%TD*%
D18*
%TO.C,SW7*%
X204200001Y-127200001D03*
X197700000Y-127200001D03*
X204200001Y-122700000D03*
X197700000Y-122700000D03*
D19*
X200950000Y-129039401D03*
%TD*%
D28*
%TO.C,J14*%
X160400000Y-72670000D03*
X160400000Y-64470000D03*
X155400000Y-72670000D03*
X155400000Y-64470000D03*
X150400000Y-72670000D03*
X150400000Y-64470000D03*
%TD*%
D16*
%TO.C,U7*%
X164270000Y-132720000D03*
D17*
X166810000Y-132720000D03*
X169350000Y-132720000D03*
X171890000Y-132720000D03*
X174430000Y-132720000D03*
X174430000Y-117480000D03*
X171890000Y-117480000D03*
X169350000Y-117480000D03*
X166810000Y-117480000D03*
X164270000Y-117480000D03*
%TD*%
D29*
%TO.C,H2*%
X219000000Y-64000000D03*
%TD*%
D20*
%TO.C,J7*%
X218700000Y-133640000D03*
D21*
X218700000Y-131100000D03*
%TD*%
D16*
%TO.C,U9*%
X164070000Y-153520000D03*
D17*
X166610000Y-153520000D03*
X169150000Y-153520000D03*
X171690000Y-153520000D03*
X174230000Y-153520000D03*
X174230000Y-138280000D03*
X171690000Y-138280000D03*
X169150000Y-138280000D03*
X166610000Y-138280000D03*
X164070000Y-138280000D03*
%TD*%
D30*
%TO.C,J2*%
X189292100Y-170608300D03*
X190142101Y-170608300D03*
X190992099Y-170608300D03*
X191842100Y-170608300D03*
X192692101Y-170608300D03*
X193542102Y-170608300D03*
X194392100Y-170608300D03*
X195242101Y-170608300D03*
X195242101Y-171958300D03*
X194392100Y-171958300D03*
X193542102Y-171958300D03*
X192692101Y-171958300D03*
X191842100Y-171958300D03*
X190992099Y-171958300D03*
X190142101Y-171958300D03*
X189292100Y-171958300D03*
%TD*%
D29*
%TO.C,H3*%
X219000000Y-176000000D03*
%TD*%
D31*
%TO.C,K1*%
X140300000Y-95400000D03*
D32*
X158100000Y-85300000D03*
X158100000Y-92900000D03*
D33*
X154300000Y-108200000D03*
X144100000Y-108200000D03*
%TD*%
D18*
%TO.C,SW4*%
X185750001Y-132630201D03*
X179250000Y-132630201D03*
X185750001Y-128130200D03*
X179250000Y-128130200D03*
D19*
X182500000Y-134469601D03*
%TD*%
D29*
%TO.C,H4*%
X139000000Y-176000000D03*
%TD*%
D34*
%TO.C,RV1*%
X198925000Y-134075000D03*
D35*
X196425000Y-136575000D03*
X198925000Y-139075000D03*
%TD*%
D14*
%TO.C,D4*%
X138000000Y-140000000D03*
D15*
X140540000Y-140000000D03*
%TD*%
D20*
%TO.C,J10*%
X218520000Y-103200000D03*
D21*
X218520000Y-100660000D03*
X218520000Y-98120000D03*
%TD*%
D20*
%TO.C,J12*%
X218520000Y-84940000D03*
D21*
X218520000Y-82400000D03*
X218520000Y-79860000D03*
%TD*%
D20*
%TO.C,J4*%
X218620000Y-140075000D03*
D21*
X218620000Y-137535000D03*
%TD*%
D36*
%TO.C,J3*%
X219500000Y-162480000D03*
D27*
X219500000Y-159940000D03*
X219500000Y-157400000D03*
%TD*%
D37*
%TO.C,J5*%
X219500000Y-154000000D03*
X222000000Y-154000000D03*
X214500000Y-149000000D03*
X219500000Y-144000000D03*
X222000000Y-144000000D03*
D38*
X214500000Y-154000000D03*
D39*
X219500000Y-149000000D03*
D38*
X214500000Y-144000000D03*
%TD*%
D40*
%TO.C,J6*%
X144800000Y-166260000D03*
D41*
X146070000Y-166260000D03*
X144800000Y-167530000D03*
X146070000Y-167530000D03*
X144800000Y-168800000D03*
X146070000Y-168800000D03*
X144800000Y-170070000D03*
X146070000Y-170070000D03*
X144800000Y-171340000D03*
X146070000Y-171340000D03*
%TD*%
D42*
%TO.C,BT1*%
X178500000Y-148000000D03*
X207796410Y-148000000D03*
%TD*%
%LPD*%
M02*
